<?xml version="1.0" standalone="no"?>
<!DOCTYPE svg PUBLIC "-//W3C//DTD SVG 20010904//EN"
 "http://www.w3.org/TR/2001/REC-SVG-20010904/DTD/svg10.dtd">
<svg version="1.0" xmlns="http://www.w3.org/2000/svg"
 width="1024.000000pt" height="1024.000000pt" viewBox="0 0 1024.000000 1024.000000"
 preserveAspectRatio="xMidYMid meet">
<metadata>
Created by potrace 1.14, written by Peter Selinger 2001-2017
</metadata>
<g transform="translate(0.000000,1024.000000) scale(0.100000,-0.100000)"
fill="#000000" stroke="none">
<path d="M3528 10227 c-2 -6 -3 -262 -2 -567 1 -385 5 -573 13 -615 7 -33 14
-69 16 -80 7 -42 46 -169 61 -196 8 -16 12 -29 9 -29 -15 0 157 -311 176 -318
5 -2 9 -8 9 -13 0 -10 38 -62 95 -128 94 -111 317 -301 353 -301 6 0 12 -3 14
-7 2 -5 53 -33 113 -64 61 -31 139 -72 175 -91 69 -37 257 -136 405 -213 50
-26 96 -51 103 -57 6 -6 12 -8 12 -4 0 3 21 -7 48 -22 26 -16 70 -39 97 -53
28 -13 52 -26 55 -29 3 -3 54 -30 113 -60 194 -99 302 -155 307 -160 3 -3 43
-24 90 -48 194 -99 325 -167 330 -172 3 -3 37 -21 75 -40 92 -47 490 -255 560
-293 11 -6 26 -12 34 -13 8 -2 17 -7 20 -11 3 -5 33 -23 66 -39 33 -17 122
-63 197 -103 l137 -71 67 35 c143 76 310 213 388 320 17 22 33 42 37 45 11 8
89 140 89 150 0 6 4 10 10 10 5 0 9 3 8 8 -1 4 8 27 19 52 162 362 96 730
-176 987 -67 63 -170 131 -306 203 -66 35 -157 83 -202 107 -46 24 -83 40 -83
36 0 -5 -4 -3 -8 3 -6 10 -142 83 -362 196 -36 18 -67 35 -70 38 -3 3 -39 22
-80 43 -41 20 -124 63 -185 95 -60 32 -182 96 -270 142 -88 45 -182 95 -210
110 -27 15 -88 47 -135 71 -47 23 -88 47 -91 52 -3 5 -9 8 -13 8 -7 -1 -61 25
-201 99 -49 26 -144 75 -210 110 -66 34 -160 84 -210 110 -147 78 -273 144
-400 210 -197 103 -325 170 -420 220 -88 46 -163 86 -430 225 -71 37 -153 81
-182 96 -35 20 -52 25 -55 16z"/>
<path d="M8230 7205 c-1 -5 -3 -17 -5 -25 -2 -8 -7 -28 -10 -45 -36 -176 -140
-397 -264 -560 -76 -100 -223 -240 -327 -313 -36 -25 -162 -90 -789 -407 -661
-333 -719 -364 -803 -427 -186 -139 -345 -336 -452 -560 -45 -96 -93 -227 -93
-255 0 -7 -4 -13 -9 -13 -5 0 -7 -4 -4 -9 3 -4 1 -23 -4 -42 -6 -19 -13 -65
-16 -104 -9 -94 -9 -1083 -1 -1092 4 -3 125 54 269 127 145 73 385 194 533
269 149 75 273 140 276 144 3 5 9 9 12 8 10 0 62 24 217 104 80 41 150 74 157
75 6 0 13 4 15 8 2 5 71 42 153 83 83 41 152 77 153 82 2 4 9 7 15 7 7 0 64
27 127 60 63 33 121 60 127 60 7 0 13 5 13 10 0 6 5 10 12 10 13 0 145 81 184
113 72 59 209 199 256 262 29 38 56 72 61 73 4 2 7 8 7 14 0 5 13 28 29 51 71
104 151 292 182 427 6 25 13 54 15 65 3 11 8 49 11 85 6 77 7 1467 0 1525 -11
100 -43 229 -47 190z"/>
<path d="M4705 6856 c-44 -22 -83 -45 -86 -49 -3 -5 -9 -8 -13 -8 -3 1 -50
-21 -104 -47 -117 -59 -874 -444 -917 -466 -16 -9 -35 -16 -42 -16 -6 0 -13
-3 -15 -7 -1 -5 -102 -57 -223 -118 -121 -60 -221 -113 -223 -117 -2 -5 -11
-8 -21 -8 -9 0 -21 -4 -27 -9 -5 -5 -88 -48 -184 -96 -236 -118 -323 -177
-457 -311 -62 -62 -113 -117 -113 -122 0 -6 -3 -12 -8 -14 -42 -18 -252 -401
-252 -461 0 -7 -3 -17 -7 -21 -5 -4 -8 -11 -9 -14 0 -4 -4 -25 -9 -47 -4 -22
-7 -40 -5 -40 2 0 -1 -9 -7 -20 -6 -11 -15 -52 -19 -90 -9 -84 -9 -1525 0
-1575 15 -81 38 -181 42 -178 1 2 6 19 9 38 12 76 69 250 100 310 9 17 12 30
8 30 -5 0 -3 4 2 8 6 4 21 29 35 57 76 153 243 350 390 461 36 27 67 51 70 54
3 4 37 22 75 40 39 19 72 38 75 41 7 9 97 49 109 49 5 0 11 4 13 8 2 4 118 66
258 136 140 71 354 179 475 240 121 61 223 115 226 119 3 5 9 8 13 8 3 -1 30
11 59 26 28 15 54 27 57 28 23 4 215 121 254 154 177 154 313 320 403 493 15
29 28 55 28 58 2 5 13 33 40 95 9 22 18 45 19 50 2 6 6 17 9 25 12 31 27 86
32 120 3 19 8 42 10 50 14 52 17 161 17 638 0 293 -2 535 -3 537 -2 1 -40 -16
-84 -39z"/>
<path d="M2947 3762 c-48 -26 -95 -54 -105 -62 -10 -8 -34 -26 -53 -40 -45
-32 -83 -66 -133 -118 -77 -79 -93 -98 -104 -119 -7 -12 -18 -28 -26 -36 -54
-54 -161 -293 -181 -405 -2 -15 -8 -47 -12 -72 -7 -37 -9 -215 -3 -215 2 0 6
-20 13 -62 9 -58 59 -196 77 -213 3 -3 11 -15 18 -27 43 -79 34 -68 127 -163
81 -83 182 -152 350 -240 66 -35 167 -88 225 -118 58 -30 137 -71 175 -90 39
-20 72 -39 75 -43 3 -3 16 -10 30 -14 14 -4 33 -14 43 -23 9 -8 17 -11 17 -6
0 5 4 5 8 -1 4 -5 39 -26 77 -46 39 -19 124 -64 190 -99 66 -34 161 -84 210
-110 50 -26 144 -75 210 -110 66 -35 156 -81 200 -104 44 -22 82 -43 85 -46 3
-3 66 -36 140 -74 74 -38 158 -80 185 -95 83 -44 332 -175 455 -239 274 -142
317 -165 348 -184 17 -11 32 -16 32 -12 0 4 8 0 18 -8 9 -8 55 -34 102 -58 47
-24 114 -59 150 -78 85 -45 234 -123 395 -207 134 -70 297 -155 378 -198 29
-16 47 -21 49 -13 7 21 1 1081 -6 1138 -10 82 -32 181 -45 206 -6 12 -9 22 -7
22 9 0 -51 155 -90 231 -82 164 -189 312 -316 439 -80 80 -199 180 -214 180
-4 0 -21 10 -38 23 -17 13 -80 48 -141 79 -60 31 -157 81 -215 112 -58 31
-139 73 -180 93 -41 21 -77 40 -80 43 -3 3 -45 26 -95 51 -123 63 -379 196
-440 229 -27 15 -135 71 -240 125 -104 54 -193 103 -197 109 -4 6 -8 7 -8 2 0
-5 -6 -4 -12 1 -13 10 -199 108 -338 178 -41 21 -87 47 -102 57 -16 11 -28 16
-28 12 0 -3 -6 -2 -12 4 -13 10 -40 25 -323 172 -77 40 -162 85 -190 100 -27
15 -103 55 -168 88 -65 34 -125 66 -133 73 -8 6 -14 9 -14 5 0 -4 -10 0 -23 8
-21 14 -28 12 -110 -32z"/>
</g>
</svg>
