<svg width="256" height="256" version="1.1" viewBox="0 0 67.733 67.733" xmlns="http://www.w3.org/2000/svg">
 <defs>
  <linearGradient id="SVGID_1_" x1="1324.2" x2="1330.1" y1="292.32" y2="286.62" gradientTransform="matrix(17.775 0 0 17.78 -23602 -5168)" gradientUnits="userSpaceOnUse">
   <stop stop-color="#00AEFF" offset="0"/>
   <stop stop-color="#3369E7" offset="1"/>
  </linearGradient>
 </defs>
 <g transform="matrix(1.0873 0 0 1.087 43.432 59.362)" stroke-width=".10421">
  <path class="st0" d="m-31.743-54.613h45.892c4.5121 0 8.201 3.668 8.201 8.201v45.913c0 4.5121-3.668 8.201-8.201 8.201h-45.892c-4.5121 0-8.201-3.668-8.201-8.201v-45.934c0-4.5121 3.668-8.1801 8.201-8.1801z" fill="url(#SVGID_1_)"/>
  <path class="st1" d="m-8.0782-38.867c-9.712 0-17.6 7.878-17.6 17.611s7.8884 17.6 17.6 17.6c9.712 0 17.6-7.878 17.6-17.611s-7.8675-17.6-17.6-17.6zm0 30.011c-6.8463 0-12.4-5.5542-12.4-12.4 0-6.8463 5.5542-12.4 12.4-12.4 6.8463 0 12.4 5.5542 12.4 12.4 0 6.8463-5.5437 12.4-12.4 12.4zm0-22.258v9.243c0 0.26051 0.28136 0.4585 0.53145 0.32304l8.201-4.2516c0.18757-0.09379 0.25009-0.32304 0.15631-0.51061-1.6986-2.9907-4.856-5.0227-8.5032-5.1582-0.19799-0.01042-0.38556 0.14589-0.38556 0.3543zm-11.494-6.7942-1.0733-1.0733c-1.0629-1.0629-2.7615-1.0629-3.8139 0l-1.2817 1.2817c-1.0629 1.0629-1.0629 2.7615 0 3.8139l1.0629 1.0629c0.16673 0.16673 0.41682 0.13547 0.56271-0.04168 0.62524-0.85449 1.3026-1.6673 2.0633-2.4176 0.77112-0.77112 1.5735-1.4589 2.4384-2.0841 0.17715-0.10421 0.19799-0.36472 0.04168-0.54187zm17.256-2.7927v-2.1362c0-1.4901-1.2088-2.6989-2.6989-2.6989h-6.294c-1.4901 0-2.6989 1.2088-2.6989 2.6989v2.1883c0 0.25009 0.22925 0.41682 0.46893 0.3543 1.7611-0.51061 3.6055-0.77112 5.4812-0.77112 1.7923 0 3.5743 0.25009 5.2936 0.71902 0.21883 0.06252 0.44808-0.10421 0.44808-0.3543z" fill="#fff"/>
 </g>
</svg>
