<svg width="128" height="256" version="1.1" viewBox="0 0 33.867 67.733" xmlns="http://www.w3.org/2000/svg">
 <g transform="matrix(.92094 0 0 .94463 -5.1322 22.001)">
  <path d="m38.716 11.594c1.5932 0 2.8843-1.2912 2.8843-2.8843v-30.307c0-1.2192-1.4662-2.0899-2.5375-1.5081l-30.233 16.396c-1.5627 0.84949-2.5344 2.4846-2.5374 4.2626v14.131c0 1.2848 1.3891 0.1397 2.5036-0.49953l14.967-9.6344c0.79982-0.45932 1.8212-0.18309 2.2791 0.61807 0.14443 0.25224 0.22144 0.53799 0.22144 0.82903v5.7139c0.0033 1.5935 1.2946 2.8829 2.8877 2.8829h9.5655" fill="#56c380"/>
  <path d="m9.2003 13.521c-1.5948 0.0018-2.886 1.2947-2.886 2.8878v30.309c0 1.2192 1.468 2.0927 2.5393 1.5113l30.235-16.396c1.5627-0.84818 2.5345-2.483 2.5391-4.2575v-10.428c-0.02258-3.6762-1.5756-3.1513-2.6996-2.5106l-14.774 8.9348c-0.7983 0.45904-1.818 0.1845-2.2774-0.6138-0.14771-0.25368-0.2249-0.54113-0.22324-0.83506v-5.7143c0-1.5949-1.2929-2.8878-2.8875-2.8878h-9.5657" fill="#4f8cd1"/>
 </g>
</svg>
