<?xml version="1.0" encoding="utf-8"?>
<!-- Generator: Adobe Illustrator 16.0.0, SVG Export Plug-In . SVG Version: 6.00 Build 0)  -->
<!DOCTYPE svg PUBLIC "-//W3C//DTD SVG 1.1//EN" "http://www.w3.org/Graphics/SVG/1.1/DTD/svg11.dtd">
<svg version="1.1" id="Layer_1" xmlns="http://www.w3.org/2000/svg" xmlns:xlink="http://www.w3.org/1999/xlink" x="0px" y="0px"
	 width="200px" height="200px" viewBox="300 300 200 200" enable-background="new 300 300 200 200" xml:space="preserve">
<g>
	<path fill="#75D1DF" d="M462.302,353.369c-0.228-0.308-0.577-0.496-0.95-0.526c-0.377-0.03-0.746,0.109-1.019,0.374l-6.146,6.125
		c-0.447,0.449-0.503,1.159-0.143,1.676c7.926,11.203,12.125,24.333,12.125,37.981c0,36.475-29.728,66.159-66.269,66.159
		c-2.534,0-5.171-0.185-8.283-0.569c-0.193-0.029-1.022-0.156-1.549-0.242c-2.608-0.399-5.01-0.896-7.352-1.52
		c0,0-0.371-0.095-0.45-0.121c-0.024-0.004-0.042-0.012-0.068-0.023c-2.954-0.83-5.834-1.857-8.572-3.057
		c-2.732-1.181-5.473-2.62-8.167-4.295l80.479-42.561c2.558-1.356,4.115-3.74,4.161-6.379c0.054-2.634-1.405-5.078-3.915-6.529
		l-27.639-15.997l40.897-40.898c2.941-2.934,2.707-5.577,1.999-7.26c-0.846-2.082-3.041-3.538-5.337-3.538
		c-1.234,0-2.38,0.33-3.83,1.107l-98.188,51.921c-2.568,1.354-4.13,3.746-4.178,6.407c-0.039,2.647,1.442,5.08,3.954,6.509
		l27.688,15.933l-29.922,29.915c-1.665-1.806-3.24-3.693-4.69-5.643c-6.111-8.244-10.13-17.354-11.937-27.07
		c-0.026-0.139-0.05-0.281-0.065-0.419c-0.005-0.028-0.007-0.055-0.014-0.089l-0.039-0.199c-0.273-1.602-0.571-3.463-0.747-5.318
		c-0.041-0.432-0.055-0.889-0.066-1.323c0-0.011,0-0.02-0.004-0.03l-0.097-1.682c-0.063-0.953-0.134-2.03-0.134-3.127
		c0-4.519,0.449-9.009,1.341-13.342c0.419-2.028,0.932-4.028,1.531-5.941c0.023-0.068,0.037-0.119,0.049-0.189
		c0.006-0.036,0.016-0.103,0.031-0.149c0,0,0-0.005,0.002-0.007c8.654-27.874,34.058-46.602,63.213-46.602
		c4.011,0,8.123,0.464,12.942,1.464l0.585,0.125c1.511,0.316,3.194,0.75,5.14,1.319c1.032,0.301,2.066,0.674,2.977,1.001
		l0.861,0.309c0.789,0.271,1.619,0.56,2.369,0.872c0.013,0.003,0.023,0.011,0.039,0.015c0.107,0.042,0.2,0.085,0.312,0.135
		l0.042,0.022c0.365,0.169,0.793,0.158,1.152-0.035l9.68-5.125c0.423-0.221,0.688-0.665,0.693-1.149
		c0-0.481-0.271-0.919-0.693-1.143c-11.087-5.89-23.574-8.999-36.099-8.999c-42.655,0-77.357,34.697-77.357,77.356
		c0,17.283,5.676,33.694,16.414,47.456c1.417,1.814,2.982,3.629,4.658,5.414l-3.156,3.161c-2.926,2.907-2.709,5.541-2.01,7.236
		c0.867,2.09,3.069,3.549,5.357,3.549c1.209,0,2.387-0.338,3.816-1.096l6.563-3.483c2.165,1.592,4.346,3.042,6.499,4.314
		c11.95,7.065,25.513,10.801,39.217,10.801c42.647,0,77.347-34.699,77.347-77.353C477.352,382.507,472.152,366.728,462.302,353.369z
		"/>
	<g>
		<path fill="#FFD633" d="M343.908,461.127c-0.381,0-0.888-0.314-1.026-0.646c-0.109-0.265-0.336-0.818,0.983-2.13l42.196-42.189
			c0.741-0.738,1.101-1.804,0.966-2.84c-0.14-1.032-0.766-1.967-1.669-2.484L356.2,394.063c-1.019-0.586-1.619-1.481-1.608-2.395
			c0.016-0.906,0.646-1.777,1.685-2.326l98.188-51.924c0.936-0.499,1.369-0.562,1.649-0.562c0.387,0,0.857,0.298,0.991,0.622
			c0.132,0.307,0.362,0.853-0.964,2.173l-42.107,42.109c-0.74,0.734-1.098,1.792-0.964,2.829c0.136,1.037,0.758,1.966,1.657,2.487
			l29.109,16.843c1.004,0.582,1.596,1.468,1.575,2.372c-0.016,0.923-0.641,1.796-1.668,2.346l-98.204,51.941
			C344.611,461.074,344.181,461.127,343.908,461.127z"/>
	</g>
</g>
</svg>
