<svg width="256" height="512" version="1.1" viewBox="0 0 67.733 135.47" xmlns="http://www.w3.org/2000/svg">
 <g transform="matrix(.55396 0 0 .55396 -5.8724 11.289)" fill="#fff" stroke-width=".26458">
  <path class="st0" d="m46.236 86.588c1.7727-0.37042 3.5983-0.635 5.424-0.79375l14.182-1.3494-19.262-21.114c-5.7944-6.3765-8.9958-14.631-8.9958-23.257h-15.928c0 12.594 4.6831 24.686 13.176 33.999z"/>
  <path class="st0" d="m95.977 117.52c-1.4288 0.26459-2.884 0.44979-4.3392 0.60854l-15.346 1.4552 19.209 21.061c5.7944 6.3764 8.9958 14.631 8.9958 23.257h15.954c0-12.594-4.6831-24.659-13.176-33.999z"/>
  <path class="st0" d="m122.36 70.713c-2.6194-13.018-12.832-22.49-26.009-24.156l-2.4342-0.3175c-8.2285-1.0319-14.446-8.0698-14.446-16.351v-8.4931c7.3025-3.0427 12.435-10.239 12.435-18.627 0-11.139-9.0223-20.161-20.161-20.161s-20.161 9.0223-20.161 20.161c0 8.2021 4.9212 15.266 11.959 18.415v8.7048c0 16.325 12.197 30.162 28.39 32.173l2.4342 0.3175c7.5935 0.9525 11.377 6.5617 12.382 11.483 1.0054 4.9212-0.29104 11.562-6.9321 15.399-3.2544 1.8785-6.7733 3.0162-10.504 3.3602l-36.592 3.4396c-6.0325 0.58208-11.748 2.4077-16.986 5.424-11.509 6.6675-17.251 19.368-14.605 32.385 2.6194 13.018 12.832 22.49 26.009 24.156l2.4342 0.3175c8.2285 1.0319 14.446 8.0698 14.446 16.351v7.7258c-7.276 3.0427-12.382 10.239-12.382 18.6 0 11.139 9.0223 20.161 20.161 20.161 11.139 0 20.161-9.0223 20.161-20.161 0-8.2285-4.9477-15.319-12.012-18.441v-7.8846c0-16.325-12.197-30.162-28.39-32.173l-2.4342-0.3175c-7.5935-0.9525-11.377-6.5617-12.382-11.483-1.0054-4.9212 0.29104-11.562 6.9321-15.399 3.2544-1.8785 6.7733-3.0162 10.504-3.3602l36.592-3.4396c6.0325-0.58208 11.748-2.4077 16.986-5.424 11.509-6.6675 17.224-19.367 14.605-32.385z"/>
 </g>
</svg>
