<svg  width="2824" height="652" viewBox="0 0 105 28" fill="none" xmlns="http://www.w3.org/2000/svg">
<path d="M32.3958 12.8365C32.3958 12.1423 32.5115 11.5063 32.7431 10.9285C32.9747 10.3507 33.3002 9.85391 33.7196 9.43822C34.1389 9.02253 34.6396 8.6983 35.2217 8.46551C35.8039 8.23272 36.4475 8.11633 37.1527 8.11633C37.8412 8.11633 38.4431 8.22545 38.9585 8.44369C39.4738 8.66192 39.9151 8.95186 40.2823 9.31351L39.7064 10.1116C39.673 10.1615 39.6292 10.2062 39.575 10.2457C39.5207 10.2852 39.4477 10.3049 39.3559 10.3049C39.2558 10.3049 39.1546 10.2665 39.0523 10.1896C38.9501 10.1127 38.8197 10.0295 38.6611 9.94016C38.5026 9.85079 38.3023 9.76765 38.0603 9.69075C37.8182 9.61385 37.5116 9.5754 37.1402 9.5754C36.7062 9.5754 36.3067 9.65126 35.9416 9.80299C35.5764 9.95471 35.2624 10.1709 34.9996 10.4515C34.7367 10.732 34.5312 11.0739 34.383 11.4772C34.2349 11.8804 34.1608 12.3335 34.1608 12.8365C34.1608 13.3561 34.2349 13.8175 34.383 14.2207C34.5312 14.6239 34.7314 14.9637 34.9839 15.2402C35.2364 15.5166 35.5326 15.7286 35.8727 15.8762C36.2128 16.0238 36.581 16.0975 36.9774 16.0975C37.2111 16.0975 37.4229 16.0851 37.6127 16.0601C37.8026 16.0352 37.9779 15.9947 38.1385 15.9385C38.2992 15.8824 38.4504 15.8107 38.5923 15.7234C38.7342 15.6361 38.876 15.528 39.0179 15.3992C39.0596 15.3618 39.1045 15.3316 39.1525 15.3088C39.2005 15.2859 39.2516 15.2745 39.3058 15.2745C39.4018 15.2745 39.4832 15.3098 39.5499 15.3805L40.2322 16.1162C39.8566 16.5818 39.3945 16.9372 38.8458 17.1825C38.2971 17.4277 37.6367 17.5504 36.8648 17.5504C36.1763 17.5504 35.5577 17.434 35.0089 17.2012C34.4602 16.9684 33.9918 16.6431 33.6038 16.2254C33.2157 15.8076 32.9173 15.3098 32.7087 14.732C32.5001 14.1542 32.3958 13.5224 32.3958 12.8365ZM41.4191 15.0625V10.8973H43.0027V15.0625C43.0027 15.4615 43.0955 15.7712 43.2812 15.9915C43.4669 16.2119 43.7454 16.322 44.1168 16.322C44.3922 16.322 44.6488 16.2607 44.8867 16.1381C45.1245 16.0154 45.3498 15.8481 45.5626 15.6361V10.8973H47.1462V17.4506H46.176C45.9716 17.4506 45.838 17.355 45.7755 17.1638L45.6691 16.64C45.5314 16.7772 45.3895 16.9019 45.2434 17.0141C45.0974 17.1264 44.942 17.222 44.7771 17.301C44.6123 17.3799 44.435 17.4413 44.2451 17.4849C44.0552 17.5285 43.8518 17.5504 43.6348 17.5504C43.276 17.5504 42.9588 17.4901 42.6834 17.3695C42.408 17.249 42.1765 17.0786 41.9887 16.8582C41.8009 16.6379 41.659 16.375 41.5631 16.0695C41.4671 15.7639 41.4191 15.4283 41.4191 15.0625ZM48.3707 16.746L48.7337 16.1474C48.7796 16.0768 48.8349 16.0217 48.8996 15.9822C48.9643 15.9427 49.0467 15.923 49.1468 15.923C49.247 15.923 49.3398 15.951 49.4253 16.0071C49.5109 16.0632 49.6121 16.1235 49.7289 16.188C49.8457 16.2524 49.9814 16.3116 50.1358 16.3657C50.2901 16.4197 50.4884 16.4467 50.7304 16.4467C50.9181 16.4467 51.0788 16.4249 51.2123 16.3812C51.3459 16.3376 51.4564 16.2794 51.5441 16.2067C51.6317 16.1339 51.6964 16.0497 51.7381 15.9541C51.7798 15.8585 51.8007 15.7588 51.8007 15.6548C51.8007 15.501 51.7548 15.3753 51.663 15.2776C51.5712 15.1799 51.4491 15.0947 51.2968 15.0219C51.1445 14.9492 50.9714 14.8848 50.7773 14.8287C50.5833 14.7725 50.3851 14.7102 50.1827 14.6416C49.9803 14.573 49.7811 14.493 49.585 14.4015C49.3888 14.3101 49.2157 14.1937 49.0654 14.0524C48.9152 13.911 48.7942 13.7385 48.7024 13.5348C48.6106 13.3311 48.5647 13.0859 48.5647 12.7991C48.5647 12.5289 48.6179 12.2722 48.7243 12.029C48.8307 11.7858 48.9872 11.5738 49.1938 11.393C49.4003 11.2122 49.659 11.0677 49.9699 10.9596C50.2808 10.8516 50.6386 10.7975 51.0433 10.7975C51.4982 10.7975 51.9113 10.8723 52.2826 11.022C52.654 11.1716 52.9628 11.367 53.209 11.6081L52.8522 12.1755C52.8105 12.242 52.7656 12.2898 52.7176 12.3189C52.6697 12.348 52.6102 12.3626 52.5393 12.3626C52.4642 12.3626 52.3817 12.3408 52.292 12.2971C52.2023 12.2535 52.1001 12.2057 51.9853 12.1537C51.8706 12.1017 51.7391 12.0539 51.591 12.0103C51.4429 11.9666 51.2687 11.9448 51.0684 11.9448C50.7554 11.9448 50.5092 12.0113 50.3298 12.1443C50.1504 12.2774 50.0606 12.4499 50.0606 12.6619C50.0606 12.8032 50.1065 12.9217 50.1983 13.0173C50.2901 13.1129 50.4122 13.1971 50.5645 13.2698C50.7168 13.3426 50.8889 13.407 51.0809 13.4631C51.2728 13.5192 51.469 13.5816 51.6692 13.6502C51.8695 13.7188 52.0667 13.7967 52.2607 13.884C52.4548 13.9713 52.6269 14.0825 52.7771 14.2176C52.9273 14.3527 53.0483 14.5138 53.1401 14.7008C53.2319 14.8879 53.2778 15.1124 53.2778 15.3742C53.2778 15.6902 53.2205 15.9811 53.1057 16.2472C52.991 16.5132 52.823 16.7429 52.6019 16.9362C52.3807 17.1295 52.1063 17.2802 51.7788 17.3883C51.4512 17.4963 51.0767 17.5504 50.6553 17.5504C50.4299 17.5504 50.2088 17.5306 49.9918 17.4911C49.7748 17.4516 49.5672 17.3955 49.369 17.3228C49.1708 17.25 48.9872 17.1648 48.8182 17.0671C48.6492 16.9694 48.5 16.8624 48.3707 16.746ZM54.0579 11.7515V11.1218L55.1157 10.9534L55.4474 9.16387C55.4641 9.08073 55.5038 9.01526 55.5664 8.96745C55.629 8.91965 55.7062 8.89575 55.798 8.89575H56.6242V10.9596H58.3517V12.082H56.6242V15.6299C56.6242 15.8336 56.6753 15.9936 56.7775 16.11C56.8797 16.2264 57.0164 16.2846 57.1875 16.2846C57.2876 16.2846 57.37 16.2721 57.4347 16.2472C57.4994 16.2222 57.5557 16.1973 57.6037 16.1724C57.6517 16.1474 57.6955 16.1235 57.7352 16.1007C57.7748 16.0778 57.8134 16.0664 57.8509 16.0664C57.8968 16.0664 57.9354 16.0778 57.9667 16.1007C57.998 16.1235 58.0304 16.1578 58.0638 16.2035L58.5395 16.9705C58.3099 17.1617 58.045 17.3062 57.7445 17.4038C57.4441 17.5015 57.1332 17.5504 56.8119 17.5504C56.2444 17.5504 55.8073 17.3903 55.5006 17.0702C55.1939 16.7502 55.0406 16.3075 55.0406 15.7421V12.082H54.3709C54.2874 12.082 54.2144 12.0539 54.1518 11.9978C54.0892 11.9417 54.0579 11.8596 54.0579 11.7515ZM59.2632 14.1646C59.2632 13.6491 59.3414 13.1825 59.4979 12.7648C59.6544 12.347 59.8745 11.9937 60.1583 11.7048C60.442 11.4159 60.7852 11.1924 61.1879 11.0345C61.5906 10.8765 62.0381 10.7975 62.5305 10.7975C63.0228 10.7975 63.4683 10.8765 63.8668 11.0345C64.2653 11.1924 64.6054 11.4159 64.887 11.7048C65.1687 11.9937 65.3867 12.347 65.5411 12.7648C65.6955 13.1825 65.7727 13.6491 65.7727 14.1646C65.7727 14.6842 65.6955 15.1518 65.5411 15.5675C65.3867 15.9832 65.1687 16.3386 64.887 16.6338C64.6054 16.9289 64.2642 17.1544 63.8637 17.3103C63.4631 17.4662 63.0187 17.5441 62.5305 17.5441C62.0381 17.5441 61.5906 17.4662 61.1879 17.3103C60.7852 17.1544 60.442 16.9289 60.1583 16.6338C59.8745 16.3386 59.6544 15.9832 59.4979 15.5675C59.3414 15.1518 59.2632 14.6842 59.2632 14.1646ZM60.9031 14.1771C60.9031 14.8796 61.0356 15.4148 61.3005 15.7827C61.5655 16.1505 61.9755 16.3345 62.5305 16.3345C63.0771 16.3345 63.4818 16.1516 63.7447 15.7858C64.0076 15.42 64.1391 14.8837 64.1391 14.1771C64.1391 13.4704 64.0076 12.9321 63.7447 12.5621C63.4818 12.1922 63.0771 12.0072 62.5305 12.0072C61.9755 12.0072 61.5655 12.1932 61.3005 12.5652C61.0356 12.9373 60.9031 13.4745 60.9031 14.1771ZM67.1161 17.4506V10.8973H68.0863C68.2907 10.8973 68.4242 10.9929 68.4868 11.1841L68.5932 11.6705C68.7101 11.5416 68.8311 11.4242 68.9563 11.3182C69.0815 11.2122 69.215 11.1207 69.3569 11.0438C69.4987 10.9669 69.6521 10.9066 69.8169 10.863C69.9817 10.8193 70.1622 10.7975 70.3583 10.7975C70.7714 10.7975 71.1125 10.9098 71.3817 11.1342C71.6508 11.3587 71.8501 11.6559 71.9794 12.0259C72.0838 11.8097 72.2131 11.6237 72.3675 11.4678C72.5219 11.3119 72.6909 11.1851 72.8745 11.0875C73.0581 10.9898 73.2532 10.917 73.4597 10.8692C73.6663 10.8214 73.8739 10.7975 74.0825 10.7975C74.4455 10.7975 74.7679 10.8526 75.0495 10.9628C75.3312 11.0729 75.569 11.235 75.7631 11.4491C75.9571 11.6632 76.1042 11.923 76.2043 12.2285C76.3045 12.5341 76.3546 12.8843 76.3546 13.2792V17.4506H74.771V13.2792C74.771 12.8635 74.6792 12.5507 74.4956 12.3408C74.312 12.1308 74.0429 12.0259 73.6882 12.0259C73.5254 12.0259 73.3742 12.0529 73.2344 12.1069C73.0946 12.161 72.9725 12.24 72.8682 12.3439C72.7639 12.4478 72.6815 12.5787 72.621 12.7367C72.5605 12.8947 72.5302 13.0755 72.5302 13.2792V17.4506H70.9404V13.2792C70.9404 12.8427 70.8528 12.5247 70.6775 12.3252C70.5023 12.1256 70.2415 12.0259 69.8951 12.0259C69.6698 12.0259 69.457 12.082 69.2567 12.1942C69.0564 12.3065 68.8707 12.4603 68.6996 12.6556V17.4506H67.1161ZM77.579 14.0336C77.579 13.5847 77.651 13.1638 77.795 12.771C77.9389 12.3782 78.1465 12.0363 78.4178 11.7453C78.689 11.4543 79.0197 11.2236 79.4098 11.0532C79.8 10.8827 80.2413 10.7975 80.7336 10.7975C81.1467 10.7975 81.5285 10.863 81.8791 10.9939C82.2296 11.1249 82.53 11.3171 82.7804 11.5707C83.0307 11.8243 83.2269 12.135 83.3687 12.5029C83.5106 12.8708 83.5815 13.2916 83.5815 13.7655C83.5815 13.8861 83.5763 13.9858 83.5659 14.0648C83.5555 14.1438 83.5367 14.2051 83.5096 14.2488C83.4824 14.2924 83.4449 14.3236 83.3969 14.3423C83.3489 14.361 83.2895 14.3704 83.2185 14.3704H79.1501C79.196 15.0438 79.3775 15.5384 79.6946 15.8544C80.0118 16.1703 80.4311 16.3282 80.9527 16.3282C81.2072 16.3282 81.4284 16.2981 81.6162 16.2378C81.804 16.1776 81.9667 16.111 82.1044 16.0383C82.2421 15.9656 82.3631 15.9001 82.4674 15.8419C82.5717 15.7837 82.674 15.7546 82.7741 15.7546C82.8367 15.7546 82.892 15.7671 82.94 15.792C82.988 15.817 83.0287 15.8523 83.062 15.898L83.5252 16.4717C83.35 16.6753 83.1528 16.8468 82.9337 16.9861C82.7147 17.1253 82.4872 17.2365 82.2515 17.3197C82.0157 17.4028 81.7747 17.461 81.5285 17.4943C81.2824 17.5275 81.0445 17.5441 80.815 17.5441C80.356 17.5441 79.9304 17.4693 79.5381 17.3197C79.1459 17.17 78.8037 16.9466 78.5117 16.6494C78.2196 16.3521 77.9911 15.9853 77.8263 15.5488C77.6614 15.1124 77.579 14.6073 77.579 14.0336ZM79.1876 13.4226H82.1607C82.1607 13.2189 82.1326 13.0266 82.0762 12.8458C82.0199 12.665 81.9344 12.506 81.8196 12.3688C81.7048 12.2316 81.5588 12.1236 81.3815 12.0446C81.2041 11.9656 80.9986 11.9261 80.7649 11.9261C80.3018 11.9261 79.9408 12.056 79.6821 12.3158C79.4234 12.5756 79.2586 12.9445 79.1876 13.4226ZM84.975 17.4506V10.8973H85.9076C86.0704 10.8973 86.183 10.9274 86.2456 10.9877C86.3082 11.048 86.3499 11.1509 86.3708 11.2963L86.4709 12.0882C86.7046 11.685 86.98 11.366 87.2972 11.1311C87.6143 10.8962 87.969 10.7788 88.3612 10.7788C88.6867 10.7788 88.9558 10.8536 89.1686 11.0033L88.9621 12.1818C88.9496 12.2566 88.9224 12.3106 88.8807 12.3439C88.839 12.3771 88.7806 12.3938 88.7055 12.3938C88.6429 12.3938 88.5563 12.3792 88.4457 12.3501C88.3351 12.321 88.186 12.3065 87.9982 12.3065C87.6685 12.3065 87.3869 12.3969 87.1532 12.5777C86.9195 12.7585 86.7213 13.0235 86.5586 13.3727V17.4506H84.975ZM90.4244 17.4506V7.96045H92.0017V17.4506H90.4244ZM93.101 10.8973H94.4843C94.6136 10.8973 94.7127 10.9274 94.7816 10.9877C94.8504 11.048 94.9015 11.1155 94.9349 11.1903L96.337 14.5886C96.3829 14.7008 96.4235 14.8162 96.459 14.9347C96.4945 15.0531 96.5247 15.1726 96.5498 15.2932C96.5832 15.1685 96.6207 15.049 96.6624 14.9347C96.7042 14.8203 96.748 14.7029 96.7939 14.5824L98.1146 11.1903C98.1479 11.1072 98.2043 11.0376 98.2836 10.9815C98.3628 10.9253 98.4526 10.8973 98.5527 10.8973H99.817L96.2368 19.2526C96.1909 19.3648 96.1304 19.449 96.0553 19.5051C95.9802 19.5613 95.8654 19.5893 95.7111 19.5893H94.5343L95.7611 16.9642L93.101 10.8973Z" fill="white"/>
<path d="M14.0837 22.9892C19.4814 22.9892 23.857 18.7486 23.857 13.5175C23.857 8.28649 19.4814 4.0459 14.0837 4.0459C8.68599 4.0459 4.3103 8.28649 4.3103 13.5175C4.3103 18.7486 8.68599 22.9892 14.0837 22.9892Z" fill="white"/>
<path fill-rule="evenodd" clip-rule="evenodd" d="M4.25006 18.6802C4.21935 18.6298 4.18736 18.5793 4.15405 18.5287L4.18721 18.559C3.42769 17.0719 3 15.3917 3 13.6131C3 7.53052 8.00192 2.59961 14.1721 2.59961C20.3423 2.59961 25.3442 7.53052 25.3442 13.6131C25.3442 19.6957 20.3423 24.6266 14.1721 24.6266C12.6065 24.6266 11.1161 24.3091 9.76361 23.7359C-0.303504 26.9925 6.6187 23.4262 4.45249 19.0474C4.38274 18.9264 4.31524 18.804 4.25006 18.6802ZM10.8694 9.92847C10.314 9.92847 9.86371 10.377 9.86371 10.9303C9.86371 11.4836 10.314 11.9322 10.8694 11.9322H16.252C16.8074 11.9322 17.2577 11.4836 17.2577 10.9303C17.2577 10.377 16.8074 9.92847 16.252 9.92847H10.8694ZM10.8694 15.737C10.314 15.737 9.86371 16.1856 9.86371 16.7389C9.86371 17.2922 10.314 17.7407 10.8694 17.7407H16.252C16.8074 17.7407 17.2577 17.2922 17.2577 16.7389C17.2577 16.1856 16.8074 15.737 16.252 15.737H10.8694ZM11.9796 12.8327C11.4242 12.8327 10.9739 13.2813 10.9739 13.8346C10.9739 14.3879 11.4242 14.8365 11.9796 14.8365H17.3622C17.9177 14.8365 18.3679 14.3879 18.3679 13.8346C18.3679 13.2813 17.9177 12.8327 17.3622 12.8327H11.9796Z" fill="url(#paint0_linear)"/>
<path d="M25.5567 6.0743C25.5567 4.15528 23.9951 2.59961 22.0688 2.59961C20.1424 2.59961 18.5808 4.15528 18.5808 6.0743C18.5808 7.99332 20.1424 9.549 22.0688 9.549C23.9951 9.549 25.5567 7.99332 25.5567 6.0743Z" fill="#FF2E2E"/>
<path d="M21.272 5.3703L22.1562 4.61035H22.4584V7.29335H23.0425V7.57354H21.4484V7.29335H22.0873V5.27556C22.0873 5.21508 22.0893 5.15394 22.0934 5.09212L21.562 5.54366C21.5485 5.55441 21.5346 5.56247 21.5204 5.56784C21.5062 5.57322 21.493 5.57591 21.4809 5.57591C21.4606 5.57591 21.442 5.5712 21.4251 5.5618C21.4082 5.55239 21.3957 5.54164 21.3876 5.52955L21.272 5.3703Z" fill="white"/>
<defs>
<linearGradient id="paint0_linear" x1="20.5641" y1="27.351" x2="6.19633" y2="-2.69183" gradientUnits="userSpaceOnUse">
<stop stop-color="#2589FF"/>
<stop offset="1" stop-color="#78DAFF"/>
</linearGradient>
</defs>
</svg>
