<?xml version="1.0" encoding="UTF-8" standalone="no"?>
<!-- Created with Inkscape (http://www.inkscape.org/) -->

<svg
   width="100"
   height="100"
   viewBox="0 0 26.458333 26.458333"
   version="1.1"
   id="svg1"
   xmlns="http://www.w3.org/2000/svg"
   xmlns:svg="http://www.w3.org/2000/svg">
  <defs
     id="defs1" />
  <g
     id="layer1">
    <path
       class="cls-1"
       d="m 22.340571,11.02655 v -0.05189 c 0,-0.664156 -0.52925,-1.1934055 -1.193407,-1.1934055 h -0.05188 c -0.264625,0 -0.503307,0.07783 -0.6901,0.212737 L 14.453707,6.569436 V 6.4345289 c 0,-0.6641574 -0.529251,-1.1934077 -1.193408,-1.1934077 h -0.05189 c -0.664157,0 -1.193407,0.5292503 -1.193407,1.1934077 V 6.569436 L 6.0635351,9.9939965 C 5.9857015,9.9421115 5.928628,9.9161625 5.8507968,9.8590895 V 2.9528923 c 0.4254766,-0.1867946 0.7160449,-0.61227 0.7160449,-1.1155765 0,-0.5033066 -0.5603825,-1.22453994 -1.2245399,-1.22453994 -0.6641574,0 -1.2245399,0.52925034 -1.2245399,1.22453994 0,0.6952896 0.2905683,0.9287819 0.7160448,1.1155765 V 9.8850335 C 4.4083302,10.071827 4.1177619,10.497303 4.1177619,10.974665 v 0.05189 c 0,0.477363 0.2905683,0.90284 0.7160448,1.089634 v 6.85431 c -0.4254765,0.186794 -0.7160448,0.61227 -0.7160448,1.089633 v 0.05188 c 0,0.664158 0.5292503,1.193408 1.1934077,1.193408 h 0.051885 c 0.2646245,0 0.5033066,-0.07783 0.6901011,-0.212738 l 5.9514703,3.42456 v 0.134908 c 0,0.664157 0.529252,1.193407 1.193408,1.193407 h 0.05189 c 0.664157,0 1.193407,-0.52925 1.193407,-1.193407 v -0.134905 l 5.951472,-3.424561 c 0.186795,0.134907 0.425475,0.212739 0.690101,0.212739 h 0.05189 c 0.664158,0 1.193408,-0.529251 1.193408,-1.193408 v -0.02595 c 0,-0.477363 -0.29057,-0.902838 -0.716045,-1.089633 v -6.854311 c 0.425475,-0.186792 0.716045,-0.612269 0.716045,-1.115576 z m -1.727846,7.751961 c -0.555194,-0.928782 -1.515109,-1.940585 -2.708516,-2.921254 -0.264626,0.212738 -0.555194,0.425475 -0.825008,0.638213 1.515108,1.219352 2.469835,2.392004 2.869367,3.185879 -0.02595,0.134907 -0.05189,0.264626 -0.05189,0.399533 v 0.134907 l -5.951473,3.450504 c -0.160846,-0.10377 -0.316507,-0.186794 -0.529244,-0.212738 -0.741988,-1.250484 -1.463221,-4.062774 -1.463221,-7.886867 0,-3.824093 0.02595,-1.167464 0.05189,-1.701904 -0.347644,-0.160849 -0.664156,-0.316512 -0.980669,-0.477362 -0.05189,0.716044 -0.07783,1.432089 -0.07783,2.179266 0,3.082104 0.477364,6.190153 1.380202,7.99583 L 6.8574037,20.402582 c 1.0118028,0 2.3660601,-0.316512 3.8500373,-0.902838 -0.05188,-0.347645 -0.07783,-0.690101 -0.134907,-1.037745 C 8.6060053,19.261062 7.1220294,19.499744 6.2970212,19.338893 6.162114,19.178042 6.0064529,19.048325 5.8196584,18.965305 v -6.828367 c 0.1867945,-0.07783 0.3476454,-0.212737 0.4773628,-0.373587 1.2193514,-0.238683 4.0887178,0.451418 7.7000728,2.60474 0.477363,0.290569 0.928782,0.586327 1.354259,0.876896 0.290568,-0.212739 0.586326,-0.425476 0.876895,-0.638214 C 15.673053,14.233185 15.112671,13.864784 14.526344,13.491196 11.553203,11.711463 8.7097802,10.70485 6.8522152,10.673718 L 12.321136,7.5137821 c -0.477363,0.9547257 -0.850952,2.2570964 -1.06369,3.7462619 0.316512,0.134907 0.638214,0.264624 0.954726,0.425475 0.264625,-1.8835075 0.741989,-3.2688987 1.193408,-4.0368297 0.186794,-0.025949 0.373587,-0.1037699 0.52925,-0.2127383 l 5.951472,3.450504 v 0.134907 c 0,0.134907 0.02595,0.264626 0.05188,0.373589 -0.61227,1.276426 -2.65663,3.346729 -5.925529,5.313258 -0.503306,0.316512 -1.011802,0.586326 -1.489165,0.825007 0.02595,0.373589 0.05189,0.741988 0.10377,1.089632 0.638214,-0.316512 1.276427,-0.664156 1.914641,-1.037745 2.630685,-1.566996 5.0175,-3.559468 6.081189,-5.287314 v 6.480722 h -0.02595 z"
       id="path1"
       style="fill:#ffffff;stroke-width:0.0518872" />
  </g>
</svg>
