<?xml version="1.0" encoding="UTF-8" standalone="no"?>
<!-- Created with Inkscape (http://www.inkscape.org/) -->

<svg
   width="100"
   height="100"
   viewBox="0 0 26.458333 26.458333"
   version="1.1"
   id="svg1"
   xmlns="http://www.w3.org/2000/svg"
   xmlns:svg="http://www.w3.org/2000/svg">
  <defs
     id="defs1" />
  <g
     id="layer1">
    <g
       id="g1"
       transform="matrix(0.97999998,0,0,0.97999998,0.26458329,0.26458329)">
      <circle
         cx="13.229167"
         cy="13.229167"
         fill="#663399"
         id="circle1"
         style="stroke-width:0.944938"
         r="13.229167" />
      <path
         fill="#ffffff"
         d="M 5.8586311,20.599704 C 3.8742562,18.61533 2.8348217,15.969493 2.8348217,13.418153 L 13.134674,23.623511 C 10.48884,23.529011 7.843006,22.584079 5.8586311,20.599704 Z M 15.497024,23.340028 3.1183039,10.96131 C 4.1577385,6.3311004 8.3154764,2.8348219 13.229168,2.8348219 c 3.496279,0 6.520088,1.7008929 8.409969,4.252232 l -1.41741,1.2284216 C 18.615329,6.1421148 16.063989,4.724704 13.229168,4.724704 c -3.6852689,0 -6.8035727,2.3623499 -8.0319951,5.669643 L 16.063989,21.261161 c 2.740325,-0.944939 4.819195,-3.307293 5.480653,-6.142114 h -4.535713 v -1.889879 h 6.614583 c 0,4.91369 -3.496279,9.071429 -8.126488,10.11086 z"
         id="path1"
         style="stroke-width:0.944938" />
    </g>
  </g>
</svg>
