<?xml version="1.0" encoding="UTF-8" standalone="no"?>
<!-- Created with Inkscape (http://www.inkscape.org/) -->

<svg
   width="100"
   height="100"
   viewBox="0 0 26.458333 26.458333"
   version="1.1"
   id="svg1"
   xmlns="http://www.w3.org/2000/svg"
   xmlns:svg="http://www.w3.org/2000/svg">
  <defs
     id="defs1" />
  <g
     id="layer1">
    <g
       id="g1"
       transform="matrix(1.2657186,0,0,1.2657186,-12.934882,-12.387817)">
      <g
         id="g2"
         style="clip-rule:evenodd;fill-rule:evenodd;image-rendering:optimizeQuality;shape-rendering:geometricPrecision;text-rendering:geometricPrecision"
         transform="matrix(0.08906991,0,0,0.08906991,10.69547,11.153952)">
        <path
           style="opacity:0.838"
           fill="#0a0a0a"
           d="m 104.5,-0.5 c 4.333,0 8.667,0 13,0 8.282,3.23386 15.782,7.90053 22.5,14 7.451,10.2819 14.285,20.9486 20.5,32 3.43,1.2138 6.764,2.7138 10,4.5 5.309,0.9429 10.642,1.7763 16,2.5 -4.259,4.5177 -6.925,9.851 -8,16 -2.773,-2.6961 -5.44,-5.5294 -8,-8.5 -1.869,-1.6017 -3.869,-2.6017 -6,-3 3.006,6.8562 7.339,12.6896 13,17.5 -4.522,0.7812 -8.522,2.6145 -12,5.5 2.131,15.7889 4.297,31.622 6.5,47.5 1.884,20.263 10.05,37.43 24.5,51.5 4.667,2.667 9.333,5.333 14,8 4.583,1.674 9.249,2.841 14,3.5 0,1.333 0,2.667 0,4 -3.363,3.072 -7.363,4.906 -12,5.5 -10.305,1.059 -20.639,1.726 -31,2 -4.889,0.354 -9.556,1.187 -14,2.5 -1.667,0 -3.333,0 -5,0 -9.001,-6.264 -18.834,-7.598 -29.5,-4 -14.344,-12.412 -30.177,-14.412 -47.5,-6 -4.1597,-2.949 -8.8264,-3.782 -14,-2.5 -8.4707,2.395 -15.804,6.562 -22,12.5 -1,0 -2,0 -3,0 -12.5932,-13.787 -27.5932,-17.12 -45,-10 -0.683463,-0.363 -1.35013,-0.696 -2,-1 0,-1.333 0,-2.667 0,-4 3.62158,-3.222 6.78825,-6.888 9.5,-11 14.135,-24.272 26.135,-49.605 36,-76 8.965,-25.8958 19.2983,-51.2291 31,-76 6.4895,-12.3266 15.9895,-21.32662 28.5,-27 z"
           id="path1" />
      </g>
      <g
         id="g3"
         style="clip-rule:evenodd;fill-rule:evenodd;image-rendering:optimizeQuality;shape-rendering:geometricPrecision;text-rendering:geometricPrecision"
         transform="matrix(0.08906991,0,0,0.08906991,10.69547,11.153952)">
        <path
           style="opacity:1"
           fill="#f6f6f6"
           d="m 104.5,3.5 c 6.827,-0.3759 13.494,0.45743 20,2.5 5.635,4.6335 10.968,9.6335 16,15 -6.303,2.9092 -12.97,4.5758 -20,5 -12.425,1.0349 -24.7584,0.5349 -37,-1.5 -0.6667,-0.3333 -1.3333,-0.6667 -2,-1 5.9725,-8.7889 13.6391,-15.45559 23,-20 z"
           id="path2" />
      </g>
      <g
         id="g4"
         style="clip-rule:evenodd;fill-rule:evenodd;image-rendering:optimizeQuality;shape-rendering:geometricPrecision;text-rendering:geometricPrecision"
         transform="matrix(0.08906991,0,0,0.08906991,10.69547,11.153952)">
        <path
           style="opacity:1"
           fill="#525252"
           d="m 141.5,23.5 c 3.053,1.2135 5.387,3.3801 7,6.5 -6.912,4.695 -14.579,7.5283 -23,8.5 -15.462,3.0411 -30.7951,2.5411 -46,-1.5 -1.7861,-0.1962 -3.1195,-1.0295 -4,-2.5 1.1667,-2.3333 2.3333,-4.6667 3.5,-7 0.7247,-0.5585 1.5581,-0.8918 2.5,-1 15.1932,3.4944 30.527,3.9944 46,1.5 4.88,-1.2122 9.547,-2.7122 14,-4.5 z"
           id="path3" />
      </g>
      <g
         id="g5"
         style="clip-rule:evenodd;fill-rule:evenodd;image-rendering:optimizeQuality;shape-rendering:geometricPrecision;text-rendering:geometricPrecision"
         transform="matrix(0.08906991,0,0,0.08906991,10.69547,11.153952)">
        <path
           style="opacity:1"
           fill="#f6f6f6"
           d="m 125.5,41.5 c 1.699,-0.1602 3.366,0.0065 5,0.5 -0.457,0.414 -0.791,0.914 -1,1.5 1.333,1 2.667,2 4,3 -0.667,0.6667 -1.333,1.3333 -2,2 1.368,1.0937 2.535,0.7603 3.5,-1 0.399,0.2284 0.565,0.5618 0.5,1 2.263,3.6029 4.93,6.9362 8,10 0.065,0.4382 -0.101,0.7716 -0.5,1 -1.333,-1.3333 -2.667,-2.6667 -4,-4 -1.365,1.0929 -1.699,2.4262 -1,4 1.834,1.5701 2.334,3.2368 1.5,5 -4.195,-9.0962 -9.695,-10.0962 -16.5,-3 -5.516,9.1548 -5.849,18.4881 -1,28 1.451,1.9641 3.284,3.2974 5.5,4 1.333,0.6667 2.667,1.3333 4,2 -2.89,1.8507 -3.89,4.3507 -3,7.5 -1.835,0.928 -2.168,2.094 -1,3.5 -2.566,2.763 -2.566,5.43 0,8 -11.909,6.147 -23.909,6.481 -36,1 0.8132,-1.153 1.8132,-1.153 3,0 1.0741,-6.964 1.7408,-13.964 2,-21 -3.2861,0.7071 -6.6194,1.0405 -10,1 1.1409,3.1136 0.4742,5.947 -2,8.5 0.8081,0.308 1.4747,0.808 2,1.5 -0.6925,1.018 -1.3592,2.018 -2,3 -1.2124,-0.73 -2.2124,-1.73 -3,-3 -0.3333,0.333 -0.6667,0.667 -1,1 1.0771,2.229 1.7437,4.563 2,7 -0.1747,2.121 0.1586,4.121 1,6 1.9747,7.193 6.6413,12.693 14,16.5 6.991,1.946 13.991,1.946 21,0 1.442,-0.377 2.442,-1.21 3,-2.5 0.224,2.202 0.557,4.535 1,7 -2.335,2.697 -2.335,5.197 0,7.5 -1.703,3.505 -3.37,7.005 -5,10.5 -1.052,-0.149 -2.052,0.017 -3,0.5 0.333,0.333 0.667,0.667 1,1 -0.805,1.113 -1.472,2.279 -2,3.5 -3.542,-0.313 -6.875,0.021 -10,1 -5.1289,0.897 -9.7956,2.897 -14,6 -0.3333,-0.667 -0.6667,-1.333 -1,-2 1.0945,-6.329 2.0945,-12.662 3,-19 1.1371,-5.357 1.1371,-10.524 0,-15.5 -0.8734,-1.045 -1.8734,-1.878 -3,-2.5 -0.8218,-2.228 -2.1552,-2.895 -4,-2 -1.1446,1.276 -1.1446,2.609 0,4 -1,0.833 -2,1.667 -3,2.5 0.3333,0.333 0.6667,0.667 1,1 -0.8639,2.071 -2.1972,3.738 -4,5 5.5177,2.796 5.1844,4.796 -1,6 1.0156,0.519 1.6822,1.353 2,2.5 -2.7278,4.958 -5.0612,10.125 -7,15.5 1.358,2.498 1.6913,4.998 1,7.5 0.825,0.886 1.825,1.219 3,1 1.052,-0.149 2.052,0.017 3,0.5 -2.8647,0.183 -5.5314,0.683 -8,1.5 -6.2153,1.692 -11.382,5.025 -15.5,10 0.9565,-17.528 3.4565,-34.862 7.5,-52 1.1921,-1.066 0.8588,-1.899 -1,-2.5 1.3333,-1 1.3333,-2 0,-3 -1.3333,0.333 -2.6667,0.667 -4,1 2.4181,-2.164 4.0848,-4.831 5,-8 -1.41,-0.368 -2.41,-1.201 -3,-2.5 1.1405,-0.925 1.1405,-1.759 0,-2.5 1.41,-0.368 2.41,-1.201 3,-2.5 -1.3333,-1 -1.3333,-2 0,-3 -0.7739,-1.211 -1.6072,-1.211 -2.5,0 -0.3333,-1 -0.6667,-2 -1,-3 -0.1992,1.902 -1.0325,3.402 -2.5,4.5 0.8081,0.308 1.4747,0.808 2,1.5 -2.3769,3.42 -4.2102,7.087 -5.5,11 -0.9138,-1.154 -1.7471,-0.987 -2.5,0.5 0.6667,0.333 1.3333,0.667 2,1 -2.2422,3.28 -3.5755,6.947 -4,11 -0.0607,1.711 0.6059,3.044 2,4 -1.859,0.684 -3.5257,1.684 -5,3 2.3912,1.309 2.3912,2.309 0,3 0.3333,0.333 0.6667,0.667 1,1 -1.5412,1.579 -2.7078,3.413 -3.5,5.5 -1.0084,0.482 -2.175,0.648 -3.5,0.5 0.5611,1.676 1.5611,3.009 3,4 -2.0254,1.194 -2.3587,2.694 -1,4.5 -2.442,4.239 -3.442,8.572 -3,13 -0.4662,1.701 -0.4662,3.201 0,4.5 -0.5944,0.464 -1.2611,0.631 -2,0.5 -4.6138,-1.05 -9.2804,-1.217 -14,-0.5 -6.1662,2.254 -12.1662,4.754 -18,7.5 3.30844,-3.275 6.1418,-6.942 8.5,-11 4.7464,-9.161 9.7464,-18.161 15,-27 12.6605,-32.657 25.3272,-65.3234 38,-98 2.1511,-4.3022 4.3178,-8.6356 6.5,-13 0.6667,-0.3333 1.3333,-0.6667 2,-1 4.3424,1.1736 8.6758,2.3402 13,3.5 12.352,0.7036 24.685,0.5369 37,-0.5 z"
           id="path4" />
      </g>
      <g
         id="g6"
         style="clip-rule:evenodd;fill-rule:evenodd;image-rendering:optimizeQuality;shape-rendering:geometricPrecision;text-rendering:geometricPrecision"
         transform="matrix(0.08906991,0,0,0.08906991,10.69547,11.153952)">
        <path
           style="opacity:1"
           fill="#d7d7d7"
           d="m 149.5,36.5 c 0.065,0.4382 -0.101,0.7716 -0.5,1 -1.465,-2.286 -2.299,-1.786 -2.5,1.5 2.367,3.7495 2.034,7.4161 -1,11 1.333,1.3333 1.333,2.6667 0,4 1.499,0.8382 1.832,1.6715 1,2.5 -3.125,-3.4653 -6.792,-6.1319 -11,-8 0.065,-0.4382 -0.101,-0.7716 -0.5,-1 -0.965,1.7603 -2.132,2.0937 -3.5,1 0.667,-0.6667 1.333,-1.3333 2,-2 -1.333,-1 -2.667,-2 -4,-3 0.209,-0.586 0.543,-1.086 1,-1.5 -1.634,-0.4935 -3.301,-0.6602 -5,-0.5 7.59,-1.5825 15.09,-3.9158 22.5,-7 1.03,0.3361 1.53,1.0028 1.5,2 z"
           id="path5" />
      </g>
      <g
         id="g7"
         style="clip-rule:evenodd;fill-rule:evenodd;image-rendering:optimizeQuality;shape-rendering:geometricPrecision;text-rendering:geometricPrecision"
         transform="matrix(0.08906991,0,0,0.08906991,10.69547,11.153952)">
        <path
           style="opacity:1"
           fill="#191919"
           d="m 135.5,48.5 c 4.208,1.8681 7.875,4.5347 11,8 0.098,2.7476 -0.902,3.4143 -3,2 -3.07,-3.0638 -5.737,-6.3971 -8,-10 z"
           id="path6" />
      </g>
      <g
         id="g8"
         style="clip-rule:evenodd;fill-rule:evenodd;image-rendering:optimizeQuality;shape-rendering:geometricPrecision;text-rendering:geometricPrecision"
         transform="matrix(0.08906991,0,0,0.08906991,10.69547,11.153952)">
        <path
           style="opacity:1"
           fill="#202020"
           d="m 88.5,52.5 c 1.175,-0.219 2.175,0.1143 3,1 -4.8582,3.6044 -10.1915,5.771 -16,6.5 4.1017,-3.0461 8.435,-5.5461 13,-7.5 z"
           id="path7" />
      </g>
      <g
         id="g9"
         style="clip-rule:evenodd;fill-rule:evenodd;image-rendering:optimizeQuality;shape-rendering:geometricPrecision;text-rendering:geometricPrecision"
         transform="matrix(0.08906991,0,0,0.08906991,10.69547,11.153952)">
        <path
           style="opacity:1"
           fill="#545454"
           d="m 160.5,45.5 c 5.901,6.158 13.234,8.9913 22,8.5 -2.602,2.7721 -4.602,5.9388 -6,9.5 -4.333,-4.586 -9.166,-8.586 -14.5,-12 -0.792,-2.0873 -1.959,-3.9207 -3.5,-5.5 0.594,-0.4643 1.261,-0.631 2,-0.5 z"
           id="path8" />
      </g>
      <g
         id="g10"
         style="clip-rule:evenodd;fill-rule:evenodd;image-rendering:optimizeQuality;shape-rendering:geometricPrecision;text-rendering:geometricPrecision"
         transform="matrix(0.08906991,0,0,0.08906991,10.69547,11.153952)">
        <path
           style="opacity:1"
           fill="#151515"
           d="m 139.5,64.5 c 1.378,6.9879 1.211,13.9879 -0.5,21 -1.804,5.6443 -5.638,8.311 -11.5,8 -2.216,-0.7026 -4.049,-2.0359 -5.5,-4 -4.849,-9.5119 -4.516,-18.8452 1,-28 6.805,-7.0962 12.305,-6.0962 16.5,3 z"
           id="path9" />
      </g>
      <g
         id="g11"
         style="clip-rule:evenodd;fill-rule:evenodd;image-rendering:optimizeQuality;shape-rendering:geometricPrecision;text-rendering:geometricPrecision"
         transform="matrix(0.08906991,0,0,0.08906991,10.69547,11.153952)">
        <path
           style="opacity:1"
           fill="#f1f1f1"
           d="m 134.5,76.5 c 1.719,0.5221 3.052,1.5221 4,3 0,0.3333 0,0.6667 0,1 -1.279,-1.468 -2.946,-2.1347 -5,-2 0.328,5.496 -2.006,9.3293 -7,11.5 2.597,0.7792 2.597,1.2792 0,1.5 -3.107,-2.54 -4.94,-5.8733 -5.5,-10 -0.952,-5.8615 -0.285,-11.5282 2,-17 2.745,-5.7267 6.745,-7.06 12,-4 -0.746,1.8201 -2.079,3.4867 -4,5 -1.481,4.6813 -0.314,8.3479 3.5,11 z"
           id="path10" />
      </g>
      <g
         id="g12"
         style="clip-rule:evenodd;fill-rule:evenodd;image-rendering:optimizeQuality;shape-rendering:geometricPrecision;text-rendering:geometricPrecision"
         transform="matrix(0.08906991,0,0,0.08906991,10.69547,11.153952)">
        <path
           style="opacity:1"
           fill="#555555"
           d="m 158.5,49.5 c 3.532,8.0586 7.866,15.7253 13,23 -2,1.3333 -4,2.6667 -6,4 -2.137,-9.0722 -4.47,-18.0722 -7,-27 z"
           id="path11" />
      </g>
      <g
         id="g13"
         style="clip-rule:evenodd;fill-rule:evenodd;image-rendering:optimizeQuality;shape-rendering:geometricPrecision;text-rendering:geometricPrecision"
         transform="matrix(0.08906991,0,0,0.08906991,10.69547,11.153952)">
        <path
           style="opacity:1"
           fill="#c3c3c3"
           d="m 133.5,65.5 c 1.846,-0.2778 3.18,0.3888 4,2 -0.552,1.8334 -1.385,3.5001 -2.5,5 -0.5,-0.5 -1,-1 -1.5,-1.5 0.638,-1.7067 0.638,-3.54 0,-5.5 z"
           id="path12" />
      </g>
      <g
         id="g14"
         style="clip-rule:evenodd;fill-rule:evenodd;image-rendering:optimizeQuality;shape-rendering:geometricPrecision;text-rendering:geometricPrecision"
         transform="matrix(0.08906991,0,0,0.08906991,10.69547,11.153952)">
        <path
           style="opacity:1"
           fill="#666666"
           d="m 134.5,76.5 c 1.667,0 3.333,0 5,0 0.237,1.291 -0.096,2.291 -1,3 -0.948,-1.4779 -2.281,-2.4779 -4,-3 z"
           id="path13" />
      </g>
      <g
         id="g15"
         style="clip-rule:evenodd;fill-rule:evenodd;image-rendering:optimizeQuality;shape-rendering:geometricPrecision;text-rendering:geometricPrecision"
         transform="matrix(0.08906991,0,0,0.08906991,10.69547,11.153952)">
        <path
           style="opacity:1"
           fill="#191919"
           d="m 90.5,61.5 c 8.852,0.0201 13.185,4.5201 13,13.5 0.117,5.371 -1.383,10.2044 -4.5,14.5 -5.7476,6.5593 -11.4143,6.5593 -17,0 -4.6971,-11.7354 -1.8637,-21.0687 8.5,-28 z"
           id="path14" />
      </g>
      <g
         id="g16"
         style="clip-rule:evenodd;fill-rule:evenodd;image-rendering:optimizeQuality;shape-rendering:geometricPrecision;text-rendering:geometricPrecision"
         transform="matrix(0.08906991,0,0,0.08906991,10.69547,11.153952)">
        <path
           style="opacity:1"
           fill="#dfdfdf"
           d="m 96.5,74.5 c 3.1741,0.4522 3.507,1.4522 1,3 -0.8857,-0.825 -1.219,-1.825 -1,-3 z"
           id="path15" />
      </g>
      <g
         id="g17"
         style="clip-rule:evenodd;fill-rule:evenodd;image-rendering:optimizeQuality;shape-rendering:geometricPrecision;text-rendering:geometricPrecision"
         transform="matrix(0.08906991,0,0,0.08906991,10.69547,11.153952)">
        <path
           style="opacity:1"
           fill="#d7d7d7"
           d="m 97.5,69.5 c 2.4118,0.1941 3.412,1.5274 3,4 -3.4536,0.2332 -4.4536,-1.1001 -3,-4 z"
           id="path16" />
      </g>
      <g
         id="g18"
         style="clip-rule:evenodd;fill-rule:evenodd;image-rendering:optimizeQuality;shape-rendering:geometricPrecision;text-rendering:geometricPrecision"
         transform="matrix(0.08906991,0,0,0.08906991,10.69547,11.153952)">
        <path
           style="opacity:1"
           fill="#f7f7f7"
           d="m 93.5,76.5 c -0.8138,2.131 -1.3138,4.4644 -1.5,7 -1.6667,1 -3.3333,2 -5,3 -0.7826,1.9335 -0.2826,3.4335 1.5,4.5 -0.2284,0.3988 -0.5618,0.5654 -1,0.5 -2.9521,-0.8589 -4.7854,-2.8589 -5.5,-6 -2.0513,-8.8498 0.4487,-16.0165 7.5,-21.5 3.9305,-1.1382 7.2638,-0.3049 10,2.5 -4.5475,1.756 -6.5475,5.0893 -6,10 z"
           id="path17" />
      </g>
      <g
         id="g19"
         style="clip-rule:evenodd;fill-rule:evenodd;image-rendering:optimizeQuality;shape-rendering:geometricPrecision;text-rendering:geometricPrecision"
         transform="matrix(0.08906991,0,0,0.08906991,10.69547,11.153952)">
        <path
           style="opacity:1"
           fill="#dadada"
           d="m 93.5,76.5 c 1.7123,3.2109 4.379,5.0443 8,5.5 -1.488,4.3253 -4.1543,7.6587 -8,10 -2.2116,0.7891 -4.2116,0.6225 -6,-0.5 0.4382,0.0654 0.7716,-0.1012 1,-0.5 -1.7826,-1.0665 -2.2826,-2.5665 -1.5,-4.5 1.6667,-1 3.3333,-2 5,-3 0.1862,-2.5356 0.6862,-4.869 1.5,-7 z"
           id="path18" />
      </g>
      <g
         id="g20"
         style="clip-rule:evenodd;fill-rule:evenodd;image-rendering:optimizeQuality;shape-rendering:geometricPrecision;text-rendering:geometricPrecision"
         transform="matrix(0.08906991,0,0,0.08906991,10.69547,11.153952)">
        <path
           style="opacity:1"
           fill="#cbcbcb"
           d="m 138.5,80.5 c -0.827,5.9798 -3.993,9.9798 -9.5,12 -1.07,-0.028 -1.903,-0.3614 -2.5,-1 2.597,-0.2208 2.597,-0.7208 0,-1.5 4.994,-2.1707 7.328,-6.004 7,-11.5 2.054,-0.1347 3.721,0.532 5,2 z"
           id="path19" />
      </g>
      <g
         id="g21"
         style="clip-rule:evenodd;fill-rule:evenodd;image-rendering:optimizeQuality;shape-rendering:geometricPrecision;text-rendering:geometricPrecision"
         transform="matrix(0.08906991,0,0,0.08906991,10.69547,11.153952)">
        <path
           style="opacity:1"
           fill="#2a2a2a"
           d="m 148.5,88.5 c -0.057,1.109 -0.39,2.109 -1,3 -1.629,1.1253 -3.129,2.4586 -4.5,4 0.772,-2.9644 2.605,-5.2977 5.5,-7 z"
           id="path20" />
      </g>
      <g
         id="g22"
         style="clip-rule:evenodd;fill-rule:evenodd;image-rendering:optimizeQuality;shape-rendering:geometricPrecision;text-rendering:geometricPrecision"
         transform="matrix(0.08906991,0,0,0.08906991,10.69547,11.153952)">
        <path
           style="opacity:1"
           fill="#212121"
           d="m 72.5,94.5 c -1.3333,0.3333 -2.6667,0.6667 -4,1 1.4142,-1.5542 3.0808,-2.8875 5,-4 0.3333,0.1667 0.6667,0.3333 1,0.5 -0.8805,0.7083 -1.5472,1.5416 -2,2.5 z"
           id="path21" />
      </g>
      <g
         id="g23"
         style="clip-rule:evenodd;fill-rule:evenodd;image-rendering:optimizeQuality;shape-rendering:geometricPrecision;text-rendering:geometricPrecision"
         transform="matrix(0.08906991,0,0,0.08906991,10.69547,11.153952)">
        <path
           style="opacity:1"
           fill="#4f4f4f"
           d="m 72.5,97.5 c -1.5174,0.0106 -2.6841,0.6772 -3.5,2 -0.6172,-0.9491 -0.4506,-1.7825 0.5,-2.5 -1.2376,0.0773 -2.2376,-0.0894 -3,-0.5 0.4569,-0.7975 1.1236,-1.1309 2,-1 1.3333,-0.3333 2.6667,-0.6667 4,-1 1.2666,-0.587 2.2666,-0.587 3,0 -1.2701,0.7876 -2.2701,1.7876 -3,3 z"
           id="path22" />
      </g>
      <g
         id="g24"
         style="clip-rule:evenodd;fill-rule:evenodd;image-rendering:optimizeQuality;shape-rendering:geometricPrecision;text-rendering:geometricPrecision"
         transform="matrix(0.08906991,0,0,0.08906991,10.69547,11.153952)">
        <path
           style="opacity:1"
           fill="#353535"
           d="m 72.5,97.5 c 2.3398,-0.586 4.5065,-1.586 6.5,-3 0.1667,0.3333 0.3333,0.6667 0.5,1 -2.8676,2.1008 -5.8676,3.6008 -9,4.5 0.8805,-0.7083 1.5472,-1.5416 2,-2.5 z"
           id="path23" />
      </g>
      <g
         id="g25"
         style="clip-rule:evenodd;fill-rule:evenodd;image-rendering:optimizeQuality;shape-rendering:geometricPrecision;text-rendering:geometricPrecision"
         transform="matrix(0.08906991,0,0,0.08906991,10.69547,11.153952)">
        <path
           style="opacity:1"
           fill="#e7e7e7"
           d="m 91.5,115.5 c -0.3333,0 -0.6667,0 -1,0 -2.7128,-1.714 -4.7128,-4.047 -6,-7 0.6408,-0.982 1.3075,-1.982 2,-3 -0.5253,-0.692 -1.1919,-1.192 -2,-1.5 2.4742,-2.553 3.1409,-5.3864 2,-8.5 3.3806,0.0405 6.7139,-0.2929 10,-1 -0.2592,7.036 -0.9259,14.036 -2,21 -1.1868,-1.153 -2.1868,-1.153 -3,0 z"
           id="path24" />
      </g>
      <g
         id="g26"
         style="clip-rule:evenodd;fill-rule:evenodd;image-rendering:optimizeQuality;shape-rendering:geometricPrecision;text-rendering:geometricPrecision"
         transform="matrix(0.08906991,0,0,0.08906991,10.69547,11.153952)">
        <path
           style="opacity:1"
           fill="#d9d9d9"
           d="m 131.5,95.5 c 1.96,3.4222 1.96,7.089 0,11 0.079,1.628 0.412,3.295 1,5 -1.501,1.252 -3.168,2.252 -5,3 -2.566,-2.57 -2.566,-5.237 0,-8 -1.168,-1.406 -0.835,-2.572 1,-3.5 -0.89,-3.1493 0.11,-5.6493 3,-7.5 z"
           id="path25" />
      </g>
      <g
         id="g27"
         style="clip-rule:evenodd;fill-rule:evenodd;image-rendering:optimizeQuality;shape-rendering:geometricPrecision;text-rendering:geometricPrecision"
         transform="matrix(0.08906991,0,0,0.08906991,10.69547,11.153952)">
        <path
           style="opacity:1"
           fill="#0b0b0b"
           d="m 138.5,112.5 c -2.969,3.976 -5.969,7.976 -9,12 -20.297,16.333 -35.9636,12.666 -47,-11 -0.2563,-2.437 -0.9229,-4.771 -2,-7 0.3333,-0.333 0.6667,-0.667 1,-1 0.7876,1.27 1.7876,2.27 3,3 1.2872,2.953 3.2872,5.286 6,7 0.3333,0 0.6667,0 1,0 12.091,5.481 24.091,5.147 36,-1 1.832,-0.748 3.499,-1.748 5,-3 3.25,-1.743 6.084,-4.077 8.5,-7 0.067,2.887 -0.767,5.554 -2.5,8 z"
           id="path26" />
      </g>
      <g
         id="g28"
         style="clip-rule:evenodd;fill-rule:evenodd;image-rendering:optimizeQuality;shape-rendering:geometricPrecision;text-rendering:geometricPrecision"
         transform="matrix(0.08906991,0,0,0.08906991,10.69547,11.153952)">
        <path
           style="opacity:1"
           fill="#858585"
           d="m 163.5,99.5 c 1.752,10.184 3.419,20.517 5,31 0.059,2.549 -0.941,4.549 -3,6 -0.564,3.281 -0.564,6.615 0,10 -1,0 -2,0 -3,0 -0.285,-4.952 -0.285,-9.952 0,-15 -1.215,-3.871 -2.548,-7.705 -4,-11.5 1.423,-1.412 1.256,-2.579 -0.5,-3.5 -0.499,3.652 -0.665,7.318 -0.5,11 0.319,4.863 -0.014,9.53 -1,14 0.166,-14.024 -0.334,-28.024 -1.5,-42 -0.499,3.652 -0.665,7.318 -0.5,11 -0.208,-9.312 -0.208,-18.6455 0,-28 2.442,-0.1463 3.109,0.687 2,2.5 1.333,2 2.667,4 4,6 -0.522,0.5613 -0.855,1.228 -1,2 2.393,4.4958 3.56,9.329 3.5,14.5 0.497,-2.646 0.664,-5.313 0.5,-8 z"
           id="path27" />
      </g>
      <g
         id="g29"
         style="clip-rule:evenodd;fill-rule:evenodd;image-rendering:optimizeQuality;shape-rendering:geometricPrecision;text-rendering:geometricPrecision"
         transform="matrix(0.08906991,0,0,0.08906991,10.69547,11.153952)">
        <path
           style="opacity:1"
           fill="#acacac"
           d="m 149.5,36.5 c 1.767,2.2916 2.767,4.9582 3,8 0.065,0.4382 -0.101,0.7716 -0.5,1 -0.669,-2.5278 -1.502,-2.5278 -2.5,0 0.54,1.2481 1.207,2.4148 2,3.5 -1.504,1.3369 -2.504,3.0036 -3,5 1.683,3.8921 2.683,8.0587 3,12.5 -1.522,1.6563 -1.189,2.823 1,3.5 -1.491,2.0217 -1.158,3.6883 1,5 -1.333,1 -1.333,2 0,3 -1.561,0.941 -2.895,2.1076 -4,3.5 0.841,2.7283 1.841,4.7283 3,6 -1.599,-0.2678 -2.932,0.0655 -4,1 -2.895,1.7023 -4.728,4.0356 -5.5,7 1.371,-1.5414 2.871,-2.8747 4.5,-4 0,0.6667 0,1.3333 0,2 -1.216,1.9802 -2.049,3.9802 -2.5,6 1.752,-1.8509 3.252,-3.8509 4.5,-6 0.863,-0.963 1.53,-0.963 2,0 -1,1.3333 -2,2.6667 -3,4 1.333,2.3333 1.333,4.667 0,7 0.346,1.196 0.846,1.196 1.5,0 0.422,1.855 0.922,3.689 1.5,5.5 -0.259,1.261 -0.926,2.261 -2,3 0.871,5.865 1.204,11.698 1,17.5 -2.124,0.958 -4.124,2.125 -6,3.5 0.808,0.308 1.475,0.808 2,1.5 0.665,1.601 0.999,3.101 1,4.5 -0.916,0.374 -1.75,0.874 -2.5,1.5 -1.395,-1.64 -2.895,-3.14 -4.5,-4.5 0.333,-0.333 0.667,-0.667 1,-1 -2.544,-2.222 -2.544,-4.389 0,-6.5 -0.667,-1 -1.333,-2 -2,-3 1.6,-4.508 2.267,-9.008 2,-13.5 -1.269,0.109 -2.269,-0.058 -3,-0.5 1.733,-2.446 2.567,-5.113 2.5,-8 -2.416,2.923 -5.25,5.257 -8.5,7 -0.588,-1.705 -0.921,-3.372 -1,-5 1.96,-3.911 1.96,-7.5778 0,-11 -1.333,-0.6667 -2.667,-1.3333 -4,-2 5.862,0.311 9.696,-2.3557 11.5,-8 1.711,-7.0121 1.878,-14.0121 0.5,-21 0.834,-1.7632 0.334,-3.4299 -1.5,-5 -0.699,-1.5738 -0.365,-2.9071 1,-4 1.333,1.3333 2.667,2.6667 4,4 0.399,-0.2284 0.565,-0.5618 0.5,-1 2.098,1.4143 3.098,0.7476 3,-2 0.832,-0.8285 0.499,-1.6618 -1,-2.5 1.333,-1.3333 1.333,-2.6667 0,-4 3.034,-3.5839 3.367,-7.2505 1,-11 0.201,-3.286 1.035,-3.786 2.5,-1.5 0.399,-0.2284 0.565,-0.5618 0.5,-1 z"
           id="path28" />
      </g>
      <g
         id="g30"
         style="clip-rule:evenodd;fill-rule:evenodd;image-rendering:optimizeQuality;shape-rendering:geometricPrecision;text-rendering:geometricPrecision"
         transform="matrix(0.08906991,0,0,0.08906991,10.69547,11.153952)">
        <path
           style="opacity:1"
           fill="#3a3a3a"
           d="m 149.5,93.5 c -1.248,2.1491 -2.748,4.1491 -4.5,6 0.451,-2.0198 1.284,-4.0198 2.5,-6 0.896,-1.0063 1.562,-1.0063 2,0 z"
           id="path29" />
      </g>
      <g
         id="g31"
         style="clip-rule:evenodd;fill-rule:evenodd;image-rendering:optimizeQuality;shape-rendering:geometricPrecision;text-rendering:geometricPrecision"
         transform="matrix(0.08906991,0,0,0.08906991,10.69547,11.153952)">
        <path
           style="opacity:1"
           fill="#242424"
           d="m 145.5,85.5 c 0.739,-0.131 1.406,0.0357 2,0.5 -2.5,3.1667 -5,6.3333 -7.5,9.5 -0.315,-1.4078 0.018,-2.7411 1,-4 2.102,-1.5948 3.602,-3.5948 4.5,-6 z"
           id="path30" />
      </g>
      <g
         id="g32"
         style="clip-rule:evenodd;fill-rule:evenodd;image-rendering:optimizeQuality;shape-rendering:geometricPrecision;text-rendering:geometricPrecision"
         transform="matrix(0.08906991,0,0,0.08906991,10.69547,11.153952)">
        <path
           style="opacity:1"
           fill="#414141"
           d="m 156.5,141.5 c -0.333,0 -0.667,0 -1,0 -0.994,-10.153 -1.328,-20.486 -1,-31 -0.165,-3.682 0.001,-7.348 0.5,-11 1.166,13.976 1.666,27.976 1.5,42 z"
           id="path31" />
      </g>
      <g
         id="g33"
         style="clip-rule:evenodd;fill-rule:evenodd;image-rendering:optimizeQuality;shape-rendering:geometricPrecision;text-rendering:geometricPrecision"
         transform="matrix(0.08906991,0,0,0.08906991,10.69547,11.153952)">
        <path
           style="opacity:1"
           fill="#a0a0a0"
           d="m 90.5,115.5 c 1.0736,1.385 2.4069,2.551 4,3.5 -0.3333,0.333 -0.6667,0.667 -1,1 11.344,2.382 23.344,0.882 36,-4.5 0.333,0.667 0.667,1.333 1,2 -1.385,2.205 -3.385,3.705 -6,4.5 -11.922,3.922 -23.422,3.089 -34.5,-2.5 -0.3095,-1.266 -0.8095,-2.433 -1.5,-3.5 0.5944,-0.464 1.2611,-0.631 2,-0.5 z"
           id="path32" />
      </g>
      <g
         id="g34"
         style="clip-rule:evenodd;fill-rule:evenodd;image-rendering:optimizeQuality;shape-rendering:geometricPrecision;text-rendering:geometricPrecision"
         transform="matrix(0.08906991,0,0,0.08906991,10.69547,11.153952)">
        <path
           style="opacity:1"
           fill="#d2d2d2"
           d="m 82.5,113.5 c 11.0364,23.666 26.703,27.333 47,11 1.006,0.438 1.006,1.104 0,2 -1.294,0.79 -2.461,1.79 -3.5,3 -0.093,2.507 -0.926,4.674 -2.5,6.5 1.28,5.467 1.28,10.967 0,16.5 -1.593,3.303 -3.093,6.637 -4.5,10 -1.699,0.906 -3.533,1.239 -5.5,1 0.528,-1.221 1.195,-2.387 2,-3.5 -0.333,-0.333 -0.667,-0.667 -1,-1 0.948,-0.483 1.948,-0.649 3,-0.5 1.63,-3.495 3.297,-6.995 5,-10.5 -2.335,-2.303 -2.335,-4.803 0,-7.5 -0.443,-2.465 -0.776,-4.798 -1,-7 -16.682,5.984 -29.3489,1.318 -38,-14 -0.8414,-1.879 -1.1747,-3.879 -1,-6 z"
           id="path33" />
      </g>
      <g
         id="g35"
         style="clip-rule:evenodd;fill-rule:evenodd;image-rendering:optimizeQuality;shape-rendering:geometricPrecision;text-rendering:geometricPrecision"
         transform="matrix(0.08906991,0,0,0.08906991,10.69547,11.153952)">
        <path
           style="opacity:1"
           fill="#222222"
           d="m 83.5,119.5 c 8.6511,15.318 21.318,19.984 38,14 -0.558,1.29 -1.558,2.123 -3,2.5 -7.009,1.946 -14.009,1.946 -21,0 -7.3587,-3.807 -12.0253,-9.307 -14,-16.5 z"
           id="path34" />
      </g>
      <g
         id="g36"
         style="clip-rule:evenodd;fill-rule:evenodd;image-rendering:optimizeQuality;shape-rendering:geometricPrecision;text-rendering:geometricPrecision"
         transform="matrix(0.08906991,0,0,0.08906991,10.69547,11.153952)">
        <path
           style="opacity:1"
           fill="#989898"
           d="m 152.5,44.5 c 3.86,6.3958 6.36,13.3958 7.5,21 2.158,11.2294 3.325,22.5628 3.5,34 0.164,2.687 -0.003,5.354 -0.5,8 0.06,-5.171 -1.107,-10.0042 -3.5,-14.5 0.145,-0.772 0.478,-1.4387 1,-2 -1.333,-2 -2.667,-4 -4,-6 1.109,-1.813 0.442,-2.6463 -2,-2.5 -0.208,9.3545 -0.208,18.688 0,28 -0.328,10.514 0.006,20.847 1,31 0.425,9.729 1.425,19.396 3,29 0.039,1.859 -0.794,3.192 -2.5,4 -0.617,-0.949 -0.451,-1.782 0.5,-2.5 -2.276,-1.03 -2.943,-2.53 -2,-4.5 -0.419,-1.172 -1.085,-2.172 -2,-3 -0.987,3.268 -1.32,6.602 -1,10 -4.346,-0.166 -8.679,0.001 -13,0.5 -1.633,0.48 -2.966,1.313 -4,2.5 -1.429,-5.552 -2.096,-11.219 -2,-17 1.172,-11.367 2.338,-22.7 3.5,-34 -4.515,15.741 -6.181,31.741 -5,48 -4.669,-5.579 -10.502,-8.912 -17.5,-10 2.747,0.313 5.414,-0.02 8,-1 1.261,-1.953 2.427,-3.953 3.5,-6 0.467,-5.24 1.3,-10.407 2.5,-15.5 -1.011,-3.041 -0.678,-5.708 1,-8 -0.807,-2.6 -0.14,-4.934 2,-7 -0.228,-0.399 -0.562,-0.565 -1,-0.5 1.006,-0.896 1.006,-1.562 0,-2 3.031,-4.024 6.031,-8.024 9,-12 0.731,0.442 1.731,0.609 3,0.5 0.267,4.492 -0.4,8.992 -2,13.5 0.667,1 1.333,2 2,3 -2.544,2.111 -2.544,4.278 0,6.5 -0.333,0.333 -0.667,0.667 -1,1 1.605,1.36 3.105,2.86 4.5,4.5 0.75,-0.626 1.584,-1.126 2.5,-1.5 -0.001,-1.399 -0.335,-2.899 -1,-4.5 -0.525,-0.692 -1.192,-1.192 -2,-1.5 1.876,-1.375 3.876,-2.542 6,-3.5 0.204,-5.802 -0.129,-11.635 -1,-17.5 1.074,-0.739 1.741,-1.739 2,-3 -0.578,-1.811 -1.078,-3.645 -1.5,-5.5 -0.654,1.196 -1.154,1.196 -1.5,0 1.333,-2.333 1.333,-4.6667 0,-7 1,-1.3333 2,-2.6667 3,-4 -0.47,-0.963 -1.137,-0.963 -2,0 -0.438,-1.0063 -1.104,-1.0063 -2,0 0,-0.6667 0,-1.3333 0,-2 0.61,-0.891 0.943,-1.891 1,-3 1.068,-0.9345 2.401,-1.2678 4,-1 -1.159,-1.2717 -2.159,-3.2717 -3,-6 1.105,-1.3924 2.439,-2.559 4,-3.5 -1.333,-1 -1.333,-2 0,-3 -2.158,-1.3117 -2.491,-2.9783 -1,-5 -2.189,-0.677 -2.522,-1.8437 -1,-3.5 -0.317,-4.4413 -1.317,-8.6079 -3,-12.5 0.496,-1.9964 1.496,-3.6631 3,-5 -0.793,-1.0852 -1.46,-2.2519 -2,-3.5 0.998,-2.5278 1.831,-2.5278 2.5,0 0.399,-0.2284 0.565,-0.5618 0.5,-1 z"
           id="path35" />
      </g>
      <g
         id="g37"
         style="clip-rule:evenodd;fill-rule:evenodd;image-rendering:optimizeQuality;shape-rendering:geometricPrecision;text-rendering:geometricPrecision"
         transform="matrix(0.08906991,0,0,0.08906991,10.69547,11.153952)">
        <path
           style="opacity:1"
           fill="#dadada"
           d="m 63.5,134.5 c 0.0654,-0.438 -0.1012,-0.772 -0.5,-1 -2.5802,7.149 -4.4135,14.482 -5.5,22 -0.6174,-0.111 -1.1174,-0.444 -1.5,-1 -2.0065,1.169 -4.1732,1.835 -6.5,2 -0.2134,2.975 -1.2134,5.642 -3,8 1.05,1.602 0.3833,2.435 -2,2.5 -0.0541,2.059 0.1126,4.226 0.5,6.5 -1.3848,1.051 -2.3848,2.384 -3,4 -0.6708,-0.752 -1.5041,-1.086 -2.5,-1 -0.442,-4.428 0.558,-8.761 3,-13 -1.3587,-1.806 -1.0254,-3.306 1,-4.5 -1.4389,-0.991 -2.4389,-2.324 -3,-4 1.325,0.148 2.4916,-0.018 3.5,-0.5 0.7922,-2.087 1.9588,-3.921 3.5,-5.5 -0.3333,-0.333 -0.6667,-0.667 -1,-1 2.3912,-0.691 2.3912,-1.691 0,-3 1.4743,-1.316 3.141,-2.316 5,-3 -1.3941,-0.956 -2.0607,-2.289 -2,-4 0.4245,-4.053 1.7578,-7.72 4,-11 -0.6667,-0.333 -1.3333,-0.667 -2,-1 0.7529,-1.487 1.5862,-1.654 2.5,-0.5 1.2898,-3.913 3.1231,-7.58 5.5,-11 -0.5253,-0.692 -1.1919,-1.192 -2,-1.5 1.4675,-1.098 2.3008,-2.598 2.5,-4.5 0.3333,1 0.6667,2 1,3 0.8928,-1.211 1.7261,-1.211 2.5,0 -1.3333,1 -1.3333,2 0,3 -0.59,1.299 -1.59,2.132 -3,2.5 1.1405,0.741 1.1405,1.575 0,2.5 0.59,1.299 1.59,2.132 3,2.5 -0.9152,3.169 -2.5819,5.836 -5,8 1.3333,-0.333 2.6667,-0.667 4,-1 1.3333,1 1.3333,2 0,3 1.8588,0.601 2.1921,1.434 1,2.5 z"
           id="path36" />
      </g>
      <g
         id="g38"
         style="clip-rule:evenodd;fill-rule:evenodd;image-rendering:optimizeQuality;shape-rendering:geometricPrecision;text-rendering:geometricPrecision"
         transform="matrix(0.08906991,0,0,0.08906991,10.69547,11.153952)">
        <path
           style="opacity:1"
           fill="#626262"
           d="m 165.5,180.5 c -5.402,-12.327 -8.402,-25.327 -9,-39 0.986,-4.47 1.319,-9.137 1,-14 0.617,-0.111 1.117,-0.444 1.5,-1 0.875,1.373 1.375,2.873 1.5,4.5 -0.017,4.136 -0.35,8.302 -1,12.5 0.308,0.808 0.808,1.475 1.5,2 -0.23,11.514 1.603,22.68 5.5,33.5 -0.07,0.765 -0.403,1.265 -1,1.5 z"
           id="path37" />
      </g>
      <g
         id="g39"
         style="clip-rule:evenodd;fill-rule:evenodd;image-rendering:optimizeQuality;shape-rendering:geometricPrecision;text-rendering:geometricPrecision"
         transform="matrix(0.08906991,0,0,0.08906991,10.69547,11.153952)">
        <path
           style="opacity:1"
           fill="#d8d8d8"
           d="m 88.5,131.5 c -1.4813,3.825 -2.3146,7.825 -2.5,12 -0.8965,2.64 -2.3965,4.807 -4.5,6.5 1.267,1.796 1.267,3.629 0,5.5 0.5253,0.692 1.1919,1.192 2,1.5 -1.4769,1.884 -2.8102,3.884 -4,6 -0.007,1.583 0.3263,3.249 1,5 -2.0026,1.819 -3.336,3.985 -4,6.5 -1.175,0.219 -2.175,-0.114 -3,-1 0.6913,-2.502 0.358,-5.002 -1,-7.5 1.9388,-5.375 4.2722,-10.542 7,-15.5 -0.3178,-1.147 -0.9844,-1.981 -2,-2.5 6.1844,-1.204 6.5177,-3.204 1,-6 1.8028,-1.262 3.1361,-2.929 4,-5 -0.3333,-0.333 -0.6667,-0.667 -1,-1 1,-0.833 2,-1.667 3,-2.5 -1.1446,-1.391 -1.1446,-2.724 0,-4 1.8448,-0.895 3.1782,-0.228 4,2 z"
           id="path38" />
      </g>
      <g
         id="g40"
         style="clip-rule:evenodd;fill-rule:evenodd;image-rendering:optimizeQuality;shape-rendering:geometricPrecision;text-rendering:geometricPrecision"
         transform="matrix(0.08906991,0,0,0.08906991,10.69547,11.153952)">
        <path
           style="opacity:1"
           fill="#151515"
           d="m 134.5,177.5 c 0.342,0.838 1.008,1.172 2,1 0.342,0.838 1.008,1.172 2,1 -1.791,0.891 -3.624,1.891 -5.5,3 -1.517,-1.74 -3.017,-3.406 -4.5,-5 -2.137,-3.473 -5.137,-5.806 -9,-7 -15.001,-6.84 -27.1675,-3.506 -36.5,10 -2.2426,-0.637 -4.5759,-0.97 -7,-1 -3.7822,-0.121 -7.2822,0.546 -10.5,2 -5.093,1.925 -8.7596,5.425 -11,10.5 -0.948,0.483 -1.948,0.649 -3,0.5 -7.2415,-5.364 -15.4082,-8.364 -24.5,-9 -4.3697,-0.177 -8.5364,0.657 -12.5,2.5 -2.6088,0.864 -4.2754,2.03 -5,3.5 -1.58944,1.121 -3.2561,0.954 -5,-0.5 0.22845,-0.399 0.56178,-0.565 1,-0.5 5.8338,-2.746 11.8338,-5.246 18,-7.5 4.7196,-0.717 9.3862,-0.55 14,0.5 4.8836,1.47 9.3836,3.804 13.5,7 3.0008,-10.837 5.1674,-21.837 6.5,-33 1.0865,-7.518 2.9198,-14.851 5.5,-22 0.3988,0.228 0.5654,0.562 0.5,1 -4.0435,17.138 -6.5435,34.472 -7.5,52 4.118,-4.975 9.2847,-8.308 15.5,-10 4.0546,0.324 8.0546,-0.009 12,-1 1.4608,-2.882 2.6275,-5.882 3.5,-9 1.7651,-9.955 3.0984,-19.955 4,-30 0.499,4.321 0.6657,8.654 0.5,13 -0.9055,6.338 -1.9055,12.671 -3,19 0.3333,0.667 0.6667,1.333 1,2 4.2044,-3.103 8.8711,-5.103 14,-6 3.333,0 6.667,0 10,0 6.998,1.088 12.831,4.421 17.5,10 -1.181,-16.259 0.485,-32.259 5,-48 -1.162,11.3 -2.328,22.633 -3.5,34 -0.096,5.781 0.571,11.448 2,17 z"
           id="path39" />
      </g>
      <g
         id="g41"
         style="clip-rule:evenodd;fill-rule:evenodd;image-rendering:optimizeQuality;shape-rendering:geometricPrecision;text-rendering:geometricPrecision"
         transform="matrix(0.08906991,0,0,0.08906991,10.69547,11.153952)">
        <path
           style="opacity:1"
           fill="#646464"
           d="m 171.5,143.5 c 2.562,8.46 6.228,16.46 11,24 -1.294,-0.79 -2.461,-1.79 -3.5,-3 -0.658,1.608 -0.158,2.775 1.5,3.5 -0.706,3.131 -1.373,6.298 -2,9.5 0.777,2.039 1.943,2.705 3.5,2 0.495,1.973 0.662,3.973 0.5,6 -1.667,0 -3.333,0 -5,0 -2.324,-1.359 -3.99,-3.359 -5,-6 0.71,-2.586 -0.29,-4.586 -3,-6 0.427,-2.514 0.761,-5.014 1,-7.5 -1.794,-5.651 -2.794,-11.484 -3,-17.5 -0.09,-4.039 1.077,-4.706 3.5,-2 0.483,-0.948 0.649,-1.948 0.5,-3 z"
           id="path40" />
      </g>
      <g
         id="g42"
         style="clip-rule:evenodd;fill-rule:evenodd;image-rendering:optimizeQuality;shape-rendering:geometricPrecision;text-rendering:geometricPrecision"
         transform="matrix(0.08906991,0,0,0.08906991,10.69547,11.153952)">
        <path
           style="opacity:1"
           fill="#b6b6b6"
           d="m 129.5,126.5 c 0.438,-0.065 0.772,0.101 1,0.5 -2.14,2.066 -2.807,4.4 -2,7 -1.678,2.292 -2.011,4.959 -1,8 -1.2,5.093 -2.033,10.26 -2.5,15.5 -1.073,2.047 -2.239,4.047 -3.5,6 -2.586,0.98 -5.253,1.313 -8,1 -3.333,0 -6.667,0 -10,0 3.125,-0.979 6.458,-1.313 10,-1 1.967,0.239 3.801,-0.094 5.5,-1 1.407,-3.363 2.907,-6.697 4.5,-10 1.28,-5.533 1.28,-11.033 0,-16.5 1.574,-1.826 2.407,-3.993 2.5,-6.5 1.039,-1.21 2.206,-2.21 3.5,-3 z"
           id="path41" />
      </g>
      <g
         id="g43"
         style="clip-rule:evenodd;fill-rule:evenodd;image-rendering:optimizeQuality;shape-rendering:geometricPrecision;text-rendering:geometricPrecision"
         transform="matrix(0.08906991,0,0,0.08906991,10.69547,11.153952)">
        <path
           style="opacity:1"
           fill="#bebebe"
           d="m 88.5,131.5 c 1.1266,0.622 2.1266,1.455 3,2.5 1.1371,4.976 1.1371,10.143 0,15.5 0.1657,-4.346 -0.001,-8.679 -0.5,-13 -0.9016,10.045 -2.2349,20.045 -4,30 -0.8725,3.118 -2.0392,6.118 -3.5,9 -3.9454,0.991 -7.9454,1.324 -12,1 2.4686,-0.817 5.1353,-1.317 8,-1.5 -0.948,-0.483 -1.948,-0.649 -3,-0.5 0.664,-2.515 1.9974,-4.681 4,-6.5 -0.6737,-1.751 -1.007,-3.417 -1,-5 1.1898,-2.116 2.5231,-4.116 4,-6 -0.8081,-0.308 -1.4747,-0.808 -2,-1.5 1.267,-1.871 1.267,-3.704 0,-5.5 2.1035,-1.693 3.6035,-3.86 4.5,-6.5 0.1854,-4.175 1.0187,-8.175 2.5,-12 z"
           id="path42" />
      </g>
      <g
         id="g44"
         style="clip-rule:evenodd;fill-rule:evenodd;image-rendering:optimizeQuality;shape-rendering:geometricPrecision;text-rendering:geometricPrecision"
         transform="matrix(0.08906991,0,0,0.08906991,10.69547,11.153952)">
        <path
           style="opacity:1"
           fill="#7a7a7a"
           d="m 168.5,130.5 c 1.127,4.183 2.127,8.517 3,13 0.149,1.052 -0.017,2.052 -0.5,3 -2.423,-2.706 -3.59,-2.039 -3.5,2 0.206,6.016 1.206,11.849 3,17.5 -0.239,2.486 -0.573,4.986 -1,7.5 2.71,1.414 3.71,3.414 3,6 1.01,2.641 2.676,4.641 5,6 -1.915,-0.284 -3.581,0.049 -5,1 -1.322,-0.17 -2.489,0.163 -3.5,1 -1.705,-2.077 -2.872,-4.41 -3.5,-7 0.597,-0.235 0.93,-0.735 1,-1.5 -3.897,-10.82 -5.73,-21.986 -5.5,-33.5 -0.692,-0.525 -1.192,-1.192 -1.5,-2 0.65,-4.198 0.983,-8.364 1,-12.5 -0.125,-1.627 -0.625,-3.127 -1.5,-4.5 -0.383,0.556 -0.883,0.889 -1.5,1 -0.165,-3.682 0.001,-7.348 0.5,-11 1.756,0.921 1.923,2.088 0.5,3.5 1.452,3.795 2.785,7.629 4,11.5 -0.285,5.048 -0.285,10.048 0,15 1,0 2,0 3,0 -0.564,-3.385 -0.564,-6.719 0,-10 2.059,-1.451 3.059,-3.451 3,-6 z"
           id="path43" />
      </g>
      <g
         id="g45"
         style="clip-rule:evenodd;fill-rule:evenodd;image-rendering:optimizeQuality;shape-rendering:geometricPrecision;text-rendering:geometricPrecision"
         transform="matrix(0.08906991,0,0,0.08906991,10.69547,11.153952)">
        <path
           style="opacity:1"
           fill="#4e4e4e"
           d="m 182.5,167.5 c 4.797,5.298 9.797,10.465 15,15.5 7.149,4.411 14.816,7.411 23,9 -12.203,0.028 -24.203,-1.639 -36,-5 -3.986,-0.499 -7.986,-0.666 -12,-0.5 1.419,-0.951 3.085,-1.284 5,-1 1.667,0 3.333,0 5,0 0.162,-2.027 -0.005,-4.027 -0.5,-6 -1.557,0.705 -2.723,0.039 -3.5,-2 0.627,-3.202 1.294,-6.369 2,-9.5 -1.658,-0.725 -2.158,-1.892 -1.5,-3.5 1.039,1.21 2.206,2.21 3.5,3 z"
           id="path44" />
      </g>
      <g
         id="g46"
         style="clip-rule:evenodd;fill-rule:evenodd;image-rendering:optimizeQuality;shape-rendering:geometricPrecision;text-rendering:geometricPrecision"
         transform="matrix(0.08906991,0,0,0.08906991,10.69547,11.153952)">
        <path
           style="opacity:1"
           fill="#bebebe"
           d="m 57.5,155.5 c -1.3326,11.163 -3.4992,22.163 -6.5,33 -4.1164,-3.196 -8.6164,-5.53 -13.5,-7 0.7389,0.131 1.4056,-0.036 2,-0.5 -0.4662,-1.299 -0.4662,-2.799 0,-4.5 0.9959,-0.086 1.8292,0.248 2.5,1 0.6152,-1.616 1.6152,-2.949 3,-4 -0.3874,-2.274 -0.5541,-4.441 -0.5,-6.5 2.3833,-0.065 3.05,-0.898 2,-2.5 1.7866,-2.358 2.7866,-5.025 3,-8 2.3268,-0.165 4.4935,-0.831 6.5,-2 0.3826,0.556 0.8826,0.889 1.5,1 z"
           id="path45" />
      </g>
      <g
         id="g47"
         style="clip-rule:evenodd;fill-rule:evenodd;image-rendering:optimizeQuality;shape-rendering:geometricPrecision;text-rendering:geometricPrecision"
         transform="matrix(0.08906991,0,0,0.08906991,10.69547,11.153952)">
        <path
           style="opacity:1"
           fill="#7f7f7f"
           d="m 158.5,170.5 c 1.872,4.12 3.039,8.453 3.5,13 -7.627,-6.836 -16.127,-8.503 -25.5,-5 -0.992,0.172 -1.658,-0.162 -2,-1 1.034,-1.187 2.367,-2.02 4,-2.5 4.321,-0.499 8.654,-0.666 13,-0.5 -0.32,-3.398 0.013,-6.732 1,-10 0.915,0.828 1.581,1.828 2,3 -0.943,1.97 -0.276,3.47 2,4.5 -0.951,0.718 -1.117,1.551 -0.5,2.5 1.706,-0.808 2.539,-2.141 2.5,-4 z"
           id="path46" />
      </g>
      <g
         id="g48"
         style="clip-rule:evenodd;fill-rule:evenodd;image-rendering:optimizeQuality;shape-rendering:geometricPrecision;text-rendering:geometricPrecision"
         transform="matrix(0.08906991,0,0,0.08906991,10.69547,11.153952)">
        <path
           style="opacity:1"
           fill="#636363"
           d="m 119.5,170.5 c -2.356,3.551 -5.023,7.051 -8,10.5 0.667,0.333 1.333,0.667 2,1 -2.016,0.197 -4.016,1.197 -6,3 1.237,0.232 2.237,0.732 3,1.5 -3,0 -6,0 -9,0 -1.369,-1.568 -2.3695,-3.401 -3,-5.5 2.391,-1.309 2.391,-2.309 0,-3 0.3333,-0.333 0.6667,-0.667 1,-1 -2.3872,-0.976 -3.5539,-2.809 -3.5,-5.5 -3.4168,1.928 -6.2501,4.928 -8.5,9 -1.6611,2.945 -2.8278,6.279 -3.5,10 -8.7207,-3.316 -16.8874,-2.316 -24.5,3 -0.3039,-0.65 -0.6373,-1.317 -1,-2 1.3333,-1.667 2.6667,-3.333 4,-5 -0.2093,-0.586 -0.5426,-1.086 -1,-1.5 2,-0.833 4,-1.667 6,-2.5 -0.4569,-0.798 -1.1236,-1.131 -2,-1 3.2178,-1.454 6.7178,-2.121 10.5,-2 2.4241,0.03 4.7574,0.363 7,1 9.3325,-13.506 21.499,-16.84 36.5,-10 z"
           id="path47" />
      </g>
      <g
         id="g49"
         style="clip-rule:evenodd;fill-rule:evenodd;image-rendering:optimizeQuality;shape-rendering:geometricPrecision;text-rendering:geometricPrecision"
         transform="matrix(0.08906991,0,0,0.08906991,10.69547,11.153952)">
        <path
           style="opacity:1"
           fill="#7c7c7c"
           d="m 101.5,186.5 c -4.7251,1.016 -9.3918,2.349 -14,4 -0.1367,-3.053 -0.1367,-6.386 0,-10 2.2499,-4.072 5.0832,-7.072 8.5,-9 -0.0539,2.691 1.1128,4.524 3.5,5.5 -0.3333,0.333 -0.6667,0.667 -1,1 2.391,0.691 2.391,1.691 0,3 0.6305,2.099 1.631,3.932 3,5.5 z"
           id="path48" />
      </g>
      <g
         id="g50"
         style="clip-rule:evenodd;fill-rule:evenodd;image-rendering:optimizeQuality;shape-rendering:geometricPrecision;text-rendering:geometricPrecision"
         transform="matrix(0.08906991,0,0,0.08906991,10.69547,11.153952)">
        <path
           style="opacity:1"
           fill="#797979"
           d="m 119.5,170.5 c 3.863,1.194 6.863,3.527 9,7 -0.951,5.55 -1.284,10.884 -1,16 -5.058,-3.689 -10.725,-6.023 -17,-7 -0.763,-0.768 -1.763,-1.268 -3,-1.5 1.984,-1.803 3.984,-2.803 6,-3 -0.667,-0.333 -1.333,-0.667 -2,-1 2.977,-3.449 5.644,-6.949 8,-10.5 z"
           id="path49" />
      </g>
      <g
         id="g51"
         style="clip-rule:evenodd;fill-rule:evenodd;image-rendering:optimizeQuality;shape-rendering:geometricPrecision;text-rendering:geometricPrecision"
         transform="matrix(0.08906991,0,0,0.08906991,10.69547,11.153952)">
        <path
           style="opacity:1"
           fill="#5c5c5c"
           d="m 51.5,192.5 c -1.8433,2.353 -3.1766,5.02 -4,8 -10.7167,-9.953 -23.3834,-13.62 -38,-11 0.7246,-1.47 2.3912,-2.636 5,-3.5 3.9636,-1.843 8.1303,-2.677 12.5,-2.5 9.0918,0.636 17.2585,3.636 24.5,9 z"
           id="path50" />
      </g>
      <g
         id="g52"
         style="clip-rule:evenodd;fill-rule:evenodd;image-rendering:optimizeQuality;shape-rendering:geometricPrecision;text-rendering:geometricPrecision"
         transform="matrix(0.08906991,0,0,0.08906991,10.69547,11.153952)">
        <path
           style="opacity:1"
           fill="#636363"
           d="m 128.5,177.5 c 1.483,1.594 2.983,3.26 4.5,5 1.876,-1.109 3.709,-2.109 5.5,-3 5.427,-0.518 10.427,0.482 15,3 0.228,1.169 -0.272,2.503 -1.5,4 -1.243,-0.836 -2.41,-0.503 -3.5,1 1.578,0.798 3.244,1.298 5,1.5 -2.732,1.654 -4.065,4.154 -4,7.5 -5.703,-0.125 -11.37,0.208 -17,1 0.043,-4.393 0.209,-8.726 0.5,-13 -1.891,3.371 -3.058,7.038 -3.5,11 -1.022,-0.355 -1.689,-1.022 -2,-2 -0.284,-5.116 0.049,-10.45 1,-16 z"
           id="path51" />
      </g>
      <g
         id="g53"
         style="clip-rule:evenodd;fill-rule:evenodd;image-rendering:optimizeQuality;shape-rendering:geometricPrecision;text-rendering:geometricPrecision"
         transform="matrix(0.08906991,0,0,0.08906991,10.69547,11.153952)">
        <path
           style="opacity:1"
           fill="#757575"
           d="m 153.5,182.5 c 4.38,2.2 8.38,5.033 12,8.5 2.297,0.018 4.631,-0.149 7,-0.5 1,0 2,0 3,0 0.322,2.222 -0.345,4.056 -2,5.5 0.837,1.011 1.17,2.178 1,3.5 -2.926,0.961 -5.926,1.627 -9,2 -0.113,-2.549 0.554,-4.882 2,-7 -0.333,-0.333 -0.667,-0.667 -1,-1 -1.863,2.393 -3.196,5.06 -4,8 -4.032,-2.519 -8.365,-4.185 -13,-5 -0.065,-3.346 1.268,-5.846 4,-7.5 -1.756,-0.202 -3.422,-0.702 -5,-1.5 1.09,-1.503 2.257,-1.836 3.5,-1 1.228,-1.497 1.728,-2.831 1.5,-4 z"
           id="path52" />
      </g>
      <g
         id="g54"
         style="clip-rule:evenodd;fill-rule:evenodd;image-rendering:optimizeQuality;shape-rendering:geometricPrecision;text-rendering:geometricPrecision"
         transform="matrix(0.08906991,0,0,0.08906991,10.69547,11.153952)">
        <path
           style="opacity:1"
           fill="#818181"
           d="m 65.5,181.5 c 0.8764,-0.131 1.5431,0.202 2,1 -2,0.833 -4,1.667 -6,2.5 0.4574,0.414 0.7907,0.914 1,1.5 -1.3333,1.667 -2.6667,3.333 -4,5 0.3627,0.683 0.6961,1.35 1,2 -2.3138,1.977 -4.6472,3.977 -7,6 -0.3333,-1.333 -0.6667,-2.667 -1,-4 -0.6508,2.347 -1.9841,4.014 -4,5 0.8234,-2.98 2.1567,-5.647 4,-8 1.052,0.149 2.052,-0.017 3,-0.5 2.2404,-5.075 5.907,-8.575 11,-10.5 z"
           id="path53" />
      </g>
      <g
         id="g55"
         style="clip-rule:evenodd;fill-rule:evenodd;image-rendering:optimizeQuality;shape-rendering:geometricPrecision;text-rendering:geometricPrecision"
         transform="matrix(0.08906991,0,0,0.08906991,10.69547,11.153952)">
        <path
           style="opacity:1"
           fill="#585858"
           d="m 172.5,190.5 c 5.485,-1.152 11.151,-1.318 17,-0.5 6.589,0.936 12.922,2.436 19,4.5 -2.138,0.203 -3.805,1.203 -5,3 -0.692,-0.525 -1.192,-1.192 -1.5,-2 -0.725,1.658 -1.892,2.158 -3.5,1.5 1.196,-0.654 1.196,-1.154 0,-1.5 -2.396,1.567 -5.063,2.4 -8,2.5 6.658,0.5 13.325,0.666 20,0.5 -11.822,0.995 -23.822,1.328 -36,1 0.17,-1.322 -0.163,-2.489 -1,-3.5 1.655,-1.444 2.322,-3.278 2,-5.5 -1,0 -2,0 -3,0 z"
           id="path54" />
      </g>
      <g
         id="g56"
         style="clip-rule:evenodd;fill-rule:evenodd;image-rendering:optimizeQuality;shape-rendering:geometricPrecision;text-rendering:geometricPrecision"
         transform="matrix(0.08906991,0,0,0.08906991,10.69547,11.153952)">
        <path
           style="opacity:1"
           fill="#7d7d7d"
           d="m 208.5,194.5 c 11.693,-0.298 12.36,1.035 2,4 -6.675,0.166 -13.342,0 -20,-0.5 2.937,-0.1 5.604,-0.933 8,-2.5 1.196,0.346 1.196,0.846 0,1.5 1.608,0.658 2.775,0.158 3.5,-1.5 0.308,0.808 0.808,1.475 1.5,2 1.195,-1.797 2.862,-2.797 5,-3 z"
           id="path55" />
      </g>
    </g>
  </g>
</svg>
