<svg xmlns="http://www.w3.org/2000/svg" width="500" height="500" fill="none"><g clip-path="url(#a)"><path fill="#E54B4D" d="M249.603 51c-110.344.215-200.228 90.812-199.6 201.156.552 103.056 79.141 187.661 179.677 197.807a2.3 2.3 0 0 0 2.529-2.299V250.999h-15.494a2.3 2.3 0 0 1-2.299-2.299v-31.004a2.3 2.3 0 0 1 2.299-2.299h48.781a2.3 2.3 0 0 1 2.299 2.299v229.968a2.295 2.295 0 0 0 2.521 2.299C371.227 439.779 450 354.592 450 250.999 450 140.41 360.238 50.786 249.603 51m56.889 354.404a2.3 2.3 0 0 1-2.809-1.112 2.3 2.3 0 0 1-.257-1.057v-32.827a3.45 3.45 0 0 1 1.977-3.111 128.98 128.98 0 0 0 73.41-116.298c0-71.701-58.881-129.9-130.819-128.796-68.429 1.042-124.558 56.206-126.742 124.604a128.95 128.95 0 0 0 73.363 120.49 3.45 3.45 0 0 1 1.985 3.111v32.835a2.3 2.3 0 0 1-.971 1.877 2.3 2.3 0 0 1-2.094.291C130.171 382.17 84.953 320.96 85.605 249.466c.804-89.309 73.761-162.175 163.102-162.864 91.24-.705 165.692 73.317 165.692 164.397 0 70.827-45.019 131.332-107.907 154.405"/></g><defs><clipPath id="a"><path fill="#fff" d="M0 0h500v500H0z"/></clipPath></defs></svg>