<svg xmlns="http://www.w3.org/2000/svg" width="100" height="100" viewBox="0 0 26.458 26.458"><path fill="#fff" fill-rule="evenodd" d="M16.101 1.543a.754.754 0 0 0-.957-.171l-.296.16-3.225 1.834.752 1.322 2.097-1.197-.513 2.804 1.492.273.525-2.815 1.55 1.846 1.162-.98-2.348-2.803h-.011Zm-4.524 23.645c.775 0 1.402-.616 1.402-1.368s-.627-1.367-1.402-1.367-1.401.615-1.401 1.367c-.012.752.626 1.368 1.401 1.368m1.88-7.51-.501 2.815-1.504-.274.501-2.803-2.096 1.208-.764-1.322 3.202-1.834.296-.171a.754.754 0 0 1 .958.17l.227.274 2.382 2.792-1.162.991zm1.22-6.723-.502 2.815-1.504-.274.501-2.792-2.085 1.197-.752-1.322 3.19-1.823v-.023h.024l.296-.17a.754.754 0 0 1 .957.17l.228.262 2.37 2.803-1.162.992zM4.843 22.077H4.83l-.307-.091a.73.73 0 0 1-.525-.753l.274-3.805 1.447.102-.17 2.313 2.244-1.527.81 1.197-2.2 1.493 2.245.65-.4 1.39zm14.893 1.572-.103.33a.73.73 0 0 1-.74.513l-.32-.022-.022.011-.011-.011-3.533-.24.091-1.447 2.348.16-1.539-2.154 1.174-.843 1.572 2.21.684-2.233 1.379.422zm4.148-7.84.17.308a.735.735 0 0 1-.17.923l-.25.217v.011h-.012l-2.746 2.325-.958-1.129 1.8-1.526-2.7-.479L19.28 15l2.724.479-1.14-2.051 1.288-.718zm-2.792-6.358-2.439 1.31-.706-1.299 2.404-1.287-2.199-.9.558-1.368 3.35 1.356.012-.011.011.023.308.125c.33.137.513.478.456.82l-.057.342-.627 3.476-1.458-.262zM4.729 12.505l2.712.456-.25 1.458-2.736-.467 1.163 2.051-1.288.73-1.755-3.089-.17-.296a.75.75 0 0 1 .159-.923l.25-.216v-.012h.012l2.712-2.336.968 1.128Zm4.09-6.313 1.801 2.006-1.105.99-1.846-2.05-.422 2.336-1.459-.262.639-3.464.068-.354a.73.73 0 0 1 .695-.604l.32-.011.01-.011.012.011 3.624-.148.057 1.481z" clip-rule="evenodd" style="stroke-width:.11395"/></svg>