<svg xmlns="http://www.w3.org/2000/svg" width="100" height="100" viewBox="0 0 26.458 26.458"><path fill="#ed2e26" d="M-5.307-12.603c6.788 0 10.201 3.632 10.201 3.632s.39 2.688.141 8.101C4.66 7.308-5.305 12.218-5.305 12.22c-.002 0-9.965-4.911-10.342-13.089-.249-5.413.141-8.101.141-8.101s3.41-3.632 10.199-3.632" style="stroke-width:.0846859" transform="matrix(.98654 0 0 .98654 18.463 13.419)"/><path fill="#fff" d="M-10.401-1.854c0-2.892 2.286-5.244 5.095-5.244 2.812 0 5.1 2.288 5.1 5.1 0 2.244-1.93 4.091-3.417 5.04.577.33 1.85.675 3.07.787a7.36 7.36 0 0 0 2.865-5.827c0-4.201-3.417-7.618-7.618-7.618-4.2 0-7.618 3.417-7.618 7.618 0 2.537 1.057 4.79 3.055 6.517 1.868 1.615 4.601 2.693 7.713 3.203.674-.373 1.827-1.472 2.26-2.116-2.6-.335-5.059-.968-6.708-1.833C-9.124 2.45-10.4.558-10.4-1.854" style="stroke-width:.0846859" transform="matrix(.98654 0 0 .98654 18.463 13.419)"/></svg>